<?xml version="1.0" encoding="UTF-8"?><svg id="_ëÎÓÈ_3" xmlns="http://www.w3.org/2000/svg" width="1200" height="900" viewBox="0 0 1200 900"><rect x="210.514" y="118.9369" width="38.9486" height="38.9486" fill="#31394a" stroke-width="0"/><rect x="249.4626" y="118.9369" width="38.9486" height="38.9486" fill="#31394a" stroke-width="0"/><rect x="288.4112" y="118.9369" width="38.9486" height="38.9486" fill="#31394a" stroke-width="0"/><rect x="327.3598" y="118.9369" width="38.9486" height="38.9486" fill="#31394a" stroke-width="0"/><rect x="366.3084" y="118.9369" width="38.9486" height="38.9486" fill="#31394a" stroke-width="0"/><rect x="405.257" y="118.9369" width="38.9486" height="38.9486" fill="#31394a" stroke-width="0"/><rect x="444.2056" y="118.9369" width="38.9486" height="38.9486" fill="#31394a" stroke-width="0"/><rect x="483.1542" y="118.9369" width="38.9486" height="38.9486" fill="#31394a" stroke-width="0"/><rect x="405.257" y="157.8855" width="38.9486" height="38.9486" fill="#31394a" stroke-width="0"/><rect x="444.2056" y="157.8855" width="38.9486" height="38.9486" fill="#31394a" stroke-width="0"/><rect x="483.1542" y="157.8855" width="38.9486" height="38.9486" fill="#31394a" stroke-width="0"/><rect x="522.1028" y="157.8855" width="38.9486" height="38.9486" fill="#31394a" stroke-width="0"/><rect x="483.1542" y="196.8341" width="38.9486" height="38.9486" fill="#31394a" stroke-width="0"/><rect x="522.1028" y="196.8341" width="38.9486" height="38.9486" fill="#536973" stroke-width="0"/><rect x="561.0514" y="196.8341" width="38.9486" height="38.9486" fill="#31394a" stroke-width="0"/><rect x="600" y="196.8341" width="38.9486" height="38.9486" fill="#31394a" stroke-width="0"/><rect x="405.257" y="235.7827" width="38.9486" height="38.9486" fill="#b47444" stroke-width="0"/><rect x="444.2056" y="235.7827" width="38.9486" height="38.9486" fill="#b47444" stroke-width="0"/><rect x="483.1542" y="235.7827" width="38.9486" height="38.9486" fill="#ebc24f" stroke-width="0"/><rect x="522.1028" y="235.7827" width="38.9486" height="38.9486" fill="#31394a" stroke-width="0"/><rect x="561.0514" y="235.7827" width="38.9486" height="38.9486" fill="#536973" stroke-width="0"/><rect x="600" y="235.7827" width="38.9486" height="38.9486" fill="#31394a" stroke-width="0"/><rect x="638.9486" y="235.7827" width="38.9486" height="38.9486" fill="#7b90ba" stroke-width="0"/><rect x="677.8972" y="235.7827" width="38.9486" height="38.9486" fill="#7b90ba" stroke-width="0"/><rect x="366.3084" y="274.7313" width="38.9486" height="38.9486" fill="#b47444" stroke-width="0"/><rect x="405.257" y="274.7313" width="38.9486" height="38.9486" fill="#ebc24f" stroke-width="0"/><rect x="444.2056" y="274.7313" width="38.9486" height="38.9486" fill="#ebc24f" stroke-width="0"/><rect x="483.1542" y="274.7313" width="38.9486" height="38.9486" fill="#edede8" stroke-width="0"/><rect x="522.1028" y="274.7313" width="38.9486" height="38.9486" fill="#536973" stroke-width="0"/><rect x="561.0514" y="274.7313" width="38.9486" height="38.9486" fill="#8daba1" stroke-width="0"/><rect x="600" y="274.7313" width="38.9486" height="38.9486" fill="#8daba1" stroke-width="0"/><rect x="638.9486" y="274.7313" width="38.9486" height="38.9486" fill="#536973" stroke-width="0"/><rect x="677.8972" y="274.7313" width="38.9486" height="38.9486" fill="#c1cde2" stroke-width="0"/><rect x="716.8458" y="274.7313" width="38.9486" height="38.9486" fill="#7b90ba" stroke-width="0"/><rect x="755.7944" y="274.7313" width="38.9486" height="38.9486" fill="#31394a" stroke-width="0"/><rect x="366.3084" y="313.6799" width="38.9486" height="38.9486" fill="#b47444" stroke-width="0"/><rect x="405.257" y="313.6799" width="38.9486" height="38.9486" fill="#ebc24f" stroke-width="0"/><rect x="444.2056" y="313.6799" width="38.9486" height="38.9486" fill="#c1cde2" stroke-width="0"/><rect x="483.1542" y="313.6799" width="38.9486" height="38.9486" fill="#536973" stroke-width="0"/><rect x="522.1028" y="313.6799" width="38.9486" height="38.9486" fill="#8daba1" stroke-width="0"/><rect x="561.0514" y="313.6799" width="38.9486" height="38.9486" fill="#8daba1" stroke-width="0"/><rect x="600" y="313.6799" width="38.9486" height="38.9486" fill="#536973" stroke-width="0"/><rect x="638.9486" y="313.6799" width="38.9486" height="38.9486" fill="#c1cde2" stroke-width="0"/><rect x="677.8972" y="313.6799" width="38.9486" height="38.9486" fill="#edede8" stroke-width="0"/><rect x="716.8458" y="313.6799" width="38.9486" height="38.9486" fill="#536973" stroke-width="0"/><rect x="755.7944" y="313.6799" width="38.9486" height="38.9486" fill="#8daba1" stroke-width="0"/><rect x="794.743" y="313.6799" width="38.9486" height="38.9486" fill="#31394a" stroke-width="0"/><rect x="210.514" y="352.6285" width="38.9486" height="38.9486" fill="#17120b" stroke-width="0"/><rect x="249.4626" y="352.6285" width="38.9486" height="38.9486" fill="#17120b" stroke-width="0"/><rect x="288.4112" y="352.6285" width="38.9486" height="38.9486" fill="#17120b" stroke-width="0"/><rect x="405.257" y="352.6285" width="38.9486" height="38.9486" fill="#ebc24f" stroke-width="0"/><rect x="444.2056" y="352.6285" width="38.9486" height="38.9486" fill="#c1cde2" stroke-width="0"/><rect x="483.1542" y="352.6285" width="38.9486" height="38.9486" fill="#31394a" stroke-width="0"/><rect x="522.1028" y="352.6285" width="38.9486" height="38.9486" fill="#536973" stroke-width="0"/><rect x="561.0514" y="352.6285" width="38.9486" height="38.9486" fill="#536973" stroke-width="0"/><rect x="600" y="352.6285" width="38.9486" height="38.9486" fill="#31394a" stroke-width="0"/><rect x="638.9486" y="352.6285" width="38.9486" height="38.9486" fill="#c1cde2" stroke-width="0"/><rect x="677.8972" y="352.6285" width="38.9486" height="38.9486" fill="#c1cde2" stroke-width="0"/><rect x="716.8458" y="352.6285" width="38.9486" height="38.9486" fill="#8daba1" stroke-width="0"/><rect x="755.7944" y="352.6285" width="38.9486" height="38.9486" fill="#536973" stroke-width="0"/><rect x="794.743" y="352.6285" width="38.9486" height="38.9486" fill="#c1cde2" stroke-width="0"/><rect x="833.6916" y="352.6285" width="38.9486" height="38.9486" fill="#31394a" stroke-width="0"/><rect x="249.4626" y="391.5771" width="38.9486" height="38.9486" fill="#17120b" stroke-width="0"/><rect x="288.4112" y="391.5771" width="38.9486" height="38.9486" fill="#31394a" stroke-width="0"/><rect x="327.3598" y="391.5771" width="38.9486" height="38.9486" fill="#17120b" stroke-width="0"/><rect x="405.257" y="391.5771" width="38.9486" height="38.9486" fill="#7b90ba" stroke-width="0"/><rect x="444.2056" y="391.5771" width="38.9486" height="38.9486" fill="#c1cde2" stroke-width="0"/><rect x="483.1542" y="391.5771" width="38.9486" height="38.9486" fill="#31394a" stroke-width="0"/><rect x="522.1028" y="391.5771" width="38.9486" height="38.9486" fill="#536973" stroke-width="0"/><rect x="561.0514" y="391.5771" width="38.9486" height="38.9486" fill="#536973" stroke-width="0"/><rect x="600" y="391.5771" width="38.9486" height="38.9486" fill="#31394a" stroke-width="0"/><rect x="638.9486" y="391.5771" width="38.9486" height="38.9486" fill="#c1cde2" stroke-width="0"/><rect x="677.8972" y="391.5771" width="38.9486" height="38.9486" fill="#c1cde2" stroke-width="0"/><rect x="716.8458" y="391.5771" width="38.9486" height="38.9486" fill="#536973" stroke-width="0"/><rect x="755.7944" y="391.5771" width="38.9486" height="38.9486" fill="#ededed" stroke-width="0"/><rect x="794.743" y="391.5771" width="38.9486" height="38.9486" fill="#17120b" stroke-width="0"/><rect x="833.6916" y="391.5771" width="38.9486" height="38.9486" fill="#ebc24f" stroke-width="0"/><rect x="872.6402" y="391.5771" width="38.9486" height="38.9486" fill="#31394a" stroke-width="0"/><rect x="911.5888" y="391.5771" width="38.9486" height="38.9486" fill="#31394a" stroke-width="0"/><rect x="288.4112" y="430.5257" width="38.9486" height="38.9486" fill="#17120b" stroke-width="0"/><rect x="327.3598" y="430.5257" width="38.9486" height="38.9486" fill="#536973" stroke-width="0"/><rect x="366.3084" y="430.5257" width="38.9486" height="38.9486" fill="#17120b" stroke-width="0"/><rect x="405.257" y="430.5257" width="38.9486" height="38.9486" fill="#c1cde2" stroke-width="0"/><rect x="444.2056" y="430.5257" width="38.9486" height="38.9486" fill="#c1cde2" stroke-width="0"/><rect x="483.1542" y="430.5257" width="38.9486" height="38.9486" fill="#17120b" stroke-width="0"/><rect x="522.1028" y="430.5257" width="38.9486" height="38.9486" fill="#536973" stroke-width="0"/><rect x="561.0514" y="430.5257" width="38.9486" height="38.9486" fill="#536973" stroke-width="0"/><rect x="600" y="430.5257" width="38.9486" height="38.9486" fill="#31394a" stroke-width="0"/><rect x="638.9486" y="430.5257" width="38.9486" height="38.9486" fill="#c1cde2" stroke-width="0"/><rect x="677.8972" y="430.5257" width="38.9486" height="38.9486" fill="#c1cde2" stroke-width="0"/><rect x="716.8458" y="430.5257" width="38.9486" height="38.9486" fill="#31394a" stroke-width="0"/><rect x="755.7944" y="430.5257" width="38.9486" height="38.9486" fill="#ededed" stroke-width="0"/><rect x="794.743" y="430.5257" width="38.9486" height="38.9486" fill="#17120b" stroke-width="0"/><rect x="833.6916" y="430.5257" width="38.9486" height="38.9486" fill="#c1cde2" stroke-width="0"/><rect x="872.6402" y="430.5257" width="38.9486" height="38.9486" fill="#ebc24f" stroke-width="0"/><rect x="911.5888" y="430.5257" width="38.9486" height="38.9486" fill="#ebc24f" stroke-width="0"/><rect x="950.5374" y="430.5257" width="38.9486" height="38.9486" fill="#31394a" stroke-width="0"/><rect x="288.4112" y="469.4743" width="38.9486" height="38.9486" fill="#17120b" stroke-width="0"/><rect x="327.3598" y="469.4743" width="38.9486" height="38.9486" fill="#31394a" stroke-width="0"/><rect x="366.3084" y="469.4743" width="38.9486" height="38.9486" fill="#17120b" stroke-width="0"/><rect x="405.257" y="469.4743" width="38.9486" height="38.9486" fill="#7b90ba" stroke-width="0"/><rect x="444.2056" y="469.4743" width="38.9486" height="38.9486" fill="#c1cde2" stroke-width="0"/><rect x="483.1542" y="469.4743" width="38.9486" height="38.9486" fill="#31394a" stroke-width="0"/><rect x="522.1028" y="469.4743" width="38.9486" height="38.9486" fill="#31394a" stroke-width="0"/><rect x="561.0514" y="469.4743" width="38.9486" height="38.9486" fill="#536973" stroke-width="0"/><rect x="600" y="469.4743" width="38.9486" height="38.9486" fill="#17120b" stroke-width="0"/><rect x="638.9486" y="469.4743" width="38.9486" height="38.9486" fill="#c1cde2" stroke-width="0"/><rect x="677.8972" y="469.4743" width="38.9486" height="38.9486" fill="#7b90ba" stroke-width="0"/><rect x="716.8458" y="469.4743" width="38.9486" height="38.9486" fill="#536973" stroke-width="0"/><rect x="755.7944" y="469.4743" width="38.9486" height="38.9486" fill="#31394a" stroke-width="0"/><rect x="794.743" y="469.4743" width="38.9486" height="38.9486" fill="#c1cde2" stroke-width="0"/><rect x="833.6916" y="469.4743" width="38.9486" height="38.9486" fill="#7b90ba" stroke-width="0"/><rect x="872.6402" y="469.4743" width="38.9486" height="38.9486" fill="#31394a" stroke-width="0"/><rect x="911.5888" y="469.4743" width="38.9486" height="38.9486" fill="#31394a" stroke-width="0"/><rect x="249.4626" y="508.4229" width="38.9486" height="38.9486" fill="#17120b" stroke-width="0"/><rect x="288.4112" y="508.4229" width="38.9486" height="38.9486" fill="#536973" stroke-width="0"/><rect x="327.3598" y="508.4229" width="38.9486" height="38.9486" fill="#17120b" stroke-width="0"/><rect x="405.257" y="508.4229" width="38.9486" height="38.9486" fill="#554f74" stroke-width="0"/><rect x="444.2056" y="508.4229" width="38.9486" height="38.9486" fill="#7b90ba" stroke-width="0"/><rect x="483.1542" y="508.4229" width="38.9486" height="38.9486" fill="#17120b" stroke-width="0"/><rect x="522.1028" y="508.4229" width="38.9486" height="38.9486" fill="#536973" stroke-width="0"/><rect x="561.0514" y="508.4229" width="38.9486" height="38.9486" fill="#31394a" stroke-width="0"/><rect x="600" y="508.4229" width="38.9486" height="38.9486" fill="#17120b" stroke-width="0"/><rect x="638.9486" y="508.4229" width="38.9486" height="38.9486" fill="#7b90ba" stroke-width="0"/><rect x="677.8972" y="508.4229" width="38.9486" height="38.9486" fill="#7b90ba" stroke-width="0"/><rect x="716.8458" y="508.4229" width="38.9486" height="38.9486" fill="#31394a" stroke-width="0"/><rect x="755.7944" y="508.4229" width="38.9486" height="38.9486" fill="#17120b" stroke-width="0"/><rect x="794.743" y="508.4229" width="38.9486" height="38.9486" fill="#7b90ba" stroke-width="0"/><rect x="833.6916" y="508.4229" width="38.9486" height="38.9486" fill="#17120b" stroke-width="0"/><rect x="210.514" y="547.3715" width="38.9486" height="38.9486" fill="#17120b" stroke-width="0"/><rect x="249.4626" y="547.3715" width="38.9486" height="38.9486" fill="#17120b" stroke-width="0"/><rect x="288.4112" y="547.3715" width="38.9486" height="38.9486" fill="#17120b" stroke-width="0"/><rect x="405.257" y="547.3715" width="38.9486" height="38.9486" fill="#554f74" stroke-width="0"/><rect x="444.2056" y="547.3715" width="38.9486" height="38.9486" fill="#c1cde2" stroke-width="0"/><rect x="483.1542" y="547.3715" width="38.9486" height="38.9486" fill="#17120b" stroke-width="0"/><rect x="522.1028" y="547.3715" width="38.9486" height="38.9486" fill="#31394a" stroke-width="0"/><rect x="561.0514" y="547.3715" width="38.9486" height="38.9486" fill="#536973" stroke-width="0"/><rect x="600" y="547.3715" width="38.9486" height="38.9486" fill="#31394a" stroke-width="0"/><rect x="638.9486" y="547.3715" width="38.9486" height="38.9486" fill="#7b90ba" stroke-width="0"/><rect x="677.8972" y="547.3715" width="38.9486" height="38.9486" fill="#31394a" stroke-width="0"/><rect x="716.8458" y="547.3715" width="38.9486" height="38.9486" fill="#31394a" stroke-width="0"/><rect x="755.7944" y="547.3715" width="38.9486" height="38.9486" fill="#17120b" stroke-width="0"/><rect x="794.743" y="547.3715" width="38.9486" height="38.9486" fill="#17120b" stroke-width="0"/><rect x="405.257" y="586.3201" width="38.9486" height="38.9486" fill="#554f74" stroke-width="0"/><rect x="444.2056" y="586.3201" width="38.9486" height="38.9486" fill="#c1cde2" stroke-width="0"/><rect x="483.1542" y="586.3201" width="38.9486" height="38.9486" fill="#ebc24f" stroke-width="0"/><rect x="522.1028" y="586.3201" width="38.9486" height="38.9486" fill="#17120b" stroke-width="0"/><rect x="561.0514" y="586.3201" width="38.9486" height="38.9486" fill="#31394a" stroke-width="0"/><rect x="600" y="586.3201" width="38.9486" height="38.9486" fill="#31394a" stroke-width="0"/><rect x="638.9486" y="586.3201" width="38.9486" height="38.9486" fill="#17120b" stroke-width="0"/><rect x="677.8972" y="586.3201" width="38.9486" height="38.9486" fill="#31394a" stroke-width="0"/><rect x="716.8458" y="586.3201" width="38.9486" height="38.9486" fill="#31394a" stroke-width="0"/><rect x="755.7944" y="586.3201" width="38.9486" height="38.9486" fill="#17120b" stroke-width="0"/><rect x="405.257" y="625.2687" width="38.9486" height="38.9486" fill="#b47444" stroke-width="0"/><rect x="444.2056" y="625.2687" width="38.9486" height="38.9486" fill="#ebc24f" stroke-width="0"/><rect x="483.1542" y="625.2687" width="38.9486" height="38.9486" fill="#17120b" stroke-width="0"/><rect x="522.1028" y="625.2687" width="38.9486" height="38.9486" fill="#31394a" stroke-width="0"/><rect x="561.0514" y="625.2687" width="38.9486" height="38.9486" fill="#31394a" stroke-width="0"/><rect x="600" y="625.2687" width="38.9486" height="38.9486" fill="#17120b" stroke-width="0"/><rect x="638.9486" y="625.2687" width="38.9486" height="38.9486" fill="#17120b" stroke-width="0"/><rect x="677.8972" y="625.2687" width="38.9486" height="38.9486" fill="#536973" stroke-width="0"/><rect x="716.8458" y="625.2687" width="38.9486" height="38.9486" fill="#17120b" stroke-width="0"/><rect x="405.257" y="664.2173" width="38.9486" height="38.9486" fill="#b47444" stroke-width="0"/><rect x="444.2056" y="664.2173" width="38.9486" height="38.9486" fill="#ebc24f" stroke-width="0"/><rect x="483.1542" y="664.2173" width="38.9486" height="38.9486" fill="#17120b" stroke-width="0"/><rect x="522.1028" y="664.2173" width="38.9486" height="38.9486" fill="#17120b" stroke-width="0"/><rect x="561.0514" y="664.2173" width="38.9486" height="38.9486" fill="#17120b" stroke-width="0"/><rect x="600" y="664.2173" width="38.9486" height="38.9486" fill="#17120b" stroke-width="0"/><rect x="638.9486" y="664.2173" width="38.9486" height="38.9486" fill="#536973" stroke-width="0"/><rect x="677.8972" y="664.2173" width="38.9486" height="38.9486" fill="#17120b" stroke-width="0"/><rect x="366.3084" y="703.1659" width="38.9486" height="38.9486" fill="#b47444" stroke-width="0"/><rect x="405.257" y="703.1659" width="38.9486" height="38.9486" fill="#ebc24f" stroke-width="0"/><rect x="444.2056" y="703.1659" width="38.9486" height="38.9486" fill="#b47444" stroke-width="0"/><rect x="600" y="703.1659" width="38.9486" height="38.9486" fill="#17120b" stroke-width="0"/><rect x="638.9486" y="703.1659" width="38.9486" height="38.9486" fill="#17120b" stroke-width="0"/><rect x="327.3598" y="742.1145" width="38.9486" height="38.9486" fill="#b47444" stroke-width="0"/><rect x="366.3084" y="742.1145" width="38.9486" height="38.9486" fill="#b47444" stroke-width="0"/><rect x="405.257" y="742.1145" width="38.9486" height="38.9486" fill="#b47444" stroke-width="0"/><rect x="561.0514" y="742.1145" width="38.9486" height="38.9486" fill="#17120b" stroke-width="0"/><rect x="600" y="742.1145" width="38.9486" height="38.9486" fill="#17120b" stroke-width="0"/></svg>