<?xml version="1.0" encoding="UTF-8"?><svg id="_ëÎÓÈ_3" xmlns="http://www.w3.org/2000/svg" width="1800" height="1700" viewBox="0 0 1800 1700"><ellipse cx="878.4352" cy="1526.1978" rx="800.5366" ry="128.997" fill="#d1d1d1" stroke-width="0"/><polygon points="1562.1215 618.2278 1562.1215 696.1177 1523.1715 696.1177 1523.1715 657.1778 1484.2215 657.1778 1484.2215 618.2278 1445.2715 618.2278 1445.2715 696.1177 1484.2215 696.1177 1484.2215 774.0176 1328.4216 774.0176 1328.4216 735.0677 510.5015 735.0677 510.5015 774.0176 237.8615 774.0176 237.8615 812.9676 159.9715 812.9676 159.9715 774.0176 198.9116 774.0176 198.9116 735.0677 237.8615 735.0677 237.8615 657.1778 276.8116 657.1778 276.8116 618.2278 315.7615 618.2278 315.7615 579.2776 354.7115 579.2776 354.7115 540.3277 432.6115 540.3277 432.6115 501.3777 510.5015 501.3777 510.5015 462.4278 627.3516 462.4278 627.3516 423.4778 744.2015 423.4778 744.2015 384.5376 1133.6815 384.5376 1133.6815 462.4278 1172.6315 462.4278 1172.6315 540.3277 1133.6815 540.3277 1133.6815 618.2278 1172.6315 618.2278 1172.6315 579.2776 1211.5815 579.2776 1211.5815 540.3277 1328.4216 540.3277 1328.4216 501.3777 1367.3715 501.3777 1367.3715 462.4378 1367.3815 462.4378 1367.3815 462.4278 1406.3215 462.4278 1406.3215 501.3777 1445.2715 501.3777 1445.2715 540.3277 1484.2215 540.3277 1484.2215 579.2776 1523.1715 579.2776 1523.1715 618.2278 1562.1215 618.2278" fill="#deeaf1" stroke-width="0"/><rect x="121.0299" y="812.97" width="38.9501" height="38.95" stroke-width="0"/><rect x="82.08" y="851.92" width="38.95" height="38.95" stroke-width="0"/><rect x="82.08" y="890.87" width="38.95" height="38.95" stroke-width="0"/><rect x="82.08" y="929.8199" width="38.95" height="38.9401" stroke-width="0"/><rect x="121.0255" y="774.0176" width="38.95" height="38.95" stroke-width="0"/><rect x="159.9755" y="735.0677" width="38.94" height="38.95" stroke-width="0"/><rect x="198.9155" y="657.1778" width="38.95" height="38.9399" stroke-width="0"/><rect x="198.9155" y="696.1177" width="38.95" height="38.95" stroke-width="0"/><rect x="237.8655" y="618.2278" width="38.95" height="38.95" stroke-width="0"/><rect x="315.7655" y="540.3277" width="38.95" height="38.95" stroke-width="0"/><rect x="276.8154" y="579.2776" width="38.95" height="38.9502" stroke-width="0"/><rect x="354.7155" y="501.3777" width="38.95" height="38.95" stroke-width="0"/><rect x="432.6155" y="462.4278" width="38.95" height="38.95" stroke-width="0"/><rect x="471.5654" y="462.4278" width="38.9401" height="38.95" stroke-width="0"/><rect x="510.5055" y="423.4778" width="38.95" height="38.95" stroke-width="0"/><rect x="549.4555" y="423.4778" width="38.95" height="38.95" stroke-width="0"/><rect x="588.4054" y="423.4778" width="38.9501" height="38.95" stroke-width="0"/><rect x="627.3555" y="384.5376" width="38.9501" height="38.9402" stroke-width="0"/><rect x="666.3056" y="384.5376" width="38.95" height="38.9402" stroke-width="0"/><rect x="705.2555" y="384.5376" width="38.95" height="38.9402" stroke-width="0"/><rect x="744.2055" y="345.5877" width="38.9399" height="38.95" stroke-width="0"/><rect x="783.1454" y="345.5877" width="38.9501" height="38.95" stroke-width="0"/><rect x="822.0955" y="345.5877" width="38.9501" height="38.95" stroke-width="0"/><rect x="861.0455" y="345.5877" width="38.95" height="38.95" stroke-width="0"/><rect x="899.9955" y="345.5877" width="38.95" height="38.95" stroke-width="0"/><rect x="938.9455" y="345.5877" width="38.95" height="38.95" stroke-width="0"/><rect x="977.8954" y="345.5877" width="38.9501" height="38.95" stroke-width="0"/><rect x="1016.8455" y="345.5877" width="38.9401" height="38.95" stroke-width="0"/><rect x="1055.7855" y="345.5877" width="38.95" height="38.95" stroke-width="0"/><rect x="1094.7355" y="345.5877" width="38.95" height="38.95" stroke-width="0"/><rect x="1133.6912" y="345.587" width="38.9486" height="38.9486" stroke-width="0"/><rect x="1172.6398" y="345.587" width="38.9486" height="38.9486" stroke-width="0"/><rect x="1211.5884" y="345.587" width="38.9486" height="38.9486" stroke-width="0"/><rect x="1211.5884" y="306.6384" width="38.9486" height="38.9486" stroke-width="0"/><rect x="1250.537" y="267.6898" width="38.9486" height="38.9486" stroke-width="0"/><rect x="1250.537" y="228.7412" width="38.9486" height="38.9486" stroke-width="0"/><rect x="1250.537" y="189.7926" width="38.9486" height="38.9486" stroke-width="0"/><rect x="1250.537" y="150.844" width="38.9486" height="38.9486" stroke-width="0"/><rect x="1250.537" y="111.8954" width="38.9486" height="38.9486" stroke-width="0"/><rect x="1250.5399" y="72.95" width="38.9502" height="38.95" stroke-width="0"/><rect x="1289.4901" y="34" width="38.9399" height="38.95" stroke-width="0"/><rect x="1328.4301" y="34" width="38.95" height="38.95" stroke-width="0"/><rect x="1367.38" y="72.95" width="38.95" height="38.95" stroke-width="0"/><rect x="1406.33" y="72.95" width="38.95" height="38.95" stroke-width="0"/><rect x="1445.2799" y="72.95" width="38.95" height="38.95" stroke-width="0"/><rect x="1484.2299" y="111.9" width="38.9502" height="38.94" stroke-width="0"/><rect x="1484.2299" y="150.84" width="38.9502" height="38.95" stroke-width="0"/><rect x="1523.1801" y="189.79" width="38.95" height="38.95" stroke-width="0"/><rect x="1562.13" y="189.79" width="38.9399" height="38.95" stroke-width="0"/><rect x="1601.0699" y="228.74" width="38.95" height="38.95" stroke-width="0"/><rect x="1601.0699" y="267.69" width="38.95" height="38.95" stroke-width="0"/><rect x="1562.13" y="306.64" width="38.9399" height="38.95" stroke-width="0"/><rect x="1523.1801" y="306.64" width="38.95" height="38.95" stroke-width="0"/><rect x="1484.2286" y="306.6384" width="38.9486" height="38.9486" stroke-width="0"/><rect x="1445.28" y="306.6384" width="38.9486" height="38.9486" stroke-width="0"/><rect x="1406.3314" y="345.587" width="38.9486" height="38.9486" stroke-width="0"/><rect x="1367.3828" y="345.587" width="38.9486" height="38.9486" stroke-width="0"/><rect x="1367.3828" y="306.6384" width="38.9486" height="38.9486" stroke-width="0"/><rect x="1328.4342" y="306.6384" width="38.9486" height="38.9486" stroke-width="0"/><rect x="1289.4856" y="306.6384" width="38.9486" height="38.9486" stroke-width="0"/><rect x="1289.4856" y="267.6898" width="38.9486" height="38.9486" stroke-width="0"/><rect x="1328.4342" y="228.9925" width="38.9486" height="38.9486" stroke-width="0"/><rect x="1406.3314" y="267.6898" width="38.9486" height="38.9486" stroke-width="0"/><rect x="1406.3314" y="306.6384" width="38.9486" height="38.9486" fill="#b2c5cd" stroke-width="0"/><rect x="1328.4354" y="423.4876" width="38.95" height="38.9502" fill="#b2c5cd" stroke-width="0"/><rect x="1328.4254" y="462.4278" width="38.95" height="38.95" fill="#deeaf1" stroke-width="0"/><rect x="1250.537" y="423.4842" width="38.9486" height="38.9486" fill="#b2c5cd" stroke-width="0"/><rect x="1250.537" y="462.4328" width="38.9486" height="38.9486" fill="#b2c5cd" stroke-width="0"/><rect x="1250.5355" y="501.3777" width="38.95" height="38.95" fill="#b2c5cd" stroke-width="0"/><rect x="1172.6315" y="423.4876" width="38.95" height="38.9502" fill="#b2c5cd" stroke-width="0"/><rect x="1211.5884" y="384.5356" width="38.9486" height="38.9486" fill="#b2c5cd" stroke-width="0"/><rect x="1133.6854" y="384.5376" width="38.95" height="38.9402" fill="#b2c5cd" stroke-width="0"/><rect x="1094.7355" y="384.5376" width="38.95" height="38.9402" fill="#b2c5cd" stroke-width="0"/><rect x="1328.4254" y="618.2278" width="38.95" height="38.95" fill="#b2c5cd" stroke-width="0"/><rect x="1367.3828" y="267.9411" width="38.9486" height="38.9486" fill="#b2c5cd" stroke-width="0"/><rect x="1328.4342" y="267.9411" width="38.9486" height="38.9486" fill="#b2c5cd" stroke-width="0"/><rect x="1289.4856" y="228.7412" width="38.9486" height="38.9486" fill="#b2c5cd" stroke-width="0"/><rect x="1328.4342" y="189.7926" width="38.9486" height="38.9486" fill="#deeaf1" stroke-width="0"/><rect x="1484.2299" y="267.69" width="38.9502" height="38.95" stroke-width="0"/><rect x="1445.2799" y="228.74" width="38.95" height="38.95" stroke-width="0"/><rect x="1406.33" y="189.79" width="38.95" height="38.95" stroke-width="0"/><rect x="1367.38" y="189.79" width="38.95" height="38.95" stroke-width="0"/><rect x="1328.4301" y="150.84" width="38.95" height="38.95" stroke-width="0"/><polygon points="1289.4901 72.95 1289.4901 111.9 1328.4301 111.9 1328.4301 150.84 1367.38 150.84 1367.38 189.79 1445.2799 189.79 1445.2799 228.74 1484.2299 228.74 1484.2299 267.69 1523.1801 267.69 1523.1801 306.64 1601.0699 306.64 1601.0699 228.74 1523.1801 228.74 1523.1801 189.79 1484.2299 189.79 1484.2299 111.9 1367.38 111.9 1367.38 72.95 1289.4901 72.95" fill="#b2c5cd" stroke-width="0"/><rect x="1289.4901" y="111.9" width="38.9399" height="38.94" stroke-width="0"/><rect x="1250.537" y="345.587" width="38.9486" height="38.9486" stroke-width="0"/><rect x="1250.537" y="384.5356" width="38.9486" height="38.9486" stroke-width="0"/><rect x="1211.5884" y="423.4842" width="38.9486" height="38.9486" stroke-width="0"/><rect x="1172.6398" y="384.5356" width="38.9486" height="38.9486" stroke-width="0"/><rect x="1133.6815" y="423.4778" width="38.95" height="38.95" stroke-width="0"/><rect x="1094.7355" y="462.4278" width="38.95" height="38.95" stroke-width="0"/><rect x="1055.7855" y="462.4278" width="38.95" height="38.95" stroke-width="0"/><rect x="1016.8455" y="501.3777" width="38.9401" height="38.95" stroke-width="0"/><rect x="977.8954" y="501.3777" width="38.9501" height="38.95" stroke-width="0"/><rect x="938.9455" y="540.3277" width="38.95" height="38.95" stroke-width="0"/><rect x="1211.5884" y="462.4328" width="38.9486" height="38.9486" stroke-width="0"/><rect x="1211.5815" y="501.3777" width="38.95" height="38.95" stroke-width="0"/><rect x="1172.6354" y="540.3277" width="38.9501" height="38.95" stroke-width="0"/><rect x="1289.4856" y="384.5356" width="38.9486" height="38.9486" stroke-width="0"/><rect x="1289.4856" y="423.4842" width="38.9486" height="38.9486" stroke-width="0"/><rect x="1289.4855" y="462.4378" width="38.95" height="38.9399" stroke-width="0"/><rect x="1289.4816" y="501.3777" width="38.94" height="38.95" stroke-width="0"/><rect x="1328.4254" y="540.3277" width="38.95" height="38.95" stroke-width="0"/><rect x="1328.4254" y="579.2776" width="38.95" height="38.9502" stroke-width="0"/><rect x="1328.4342" y="384.5356" width="38.9486" height="38.9486" stroke-width="0"/><rect x="1328.4342" y="345.587" width="38.9486" height="38.9486" fill="#a01f12" stroke-width="0"/><rect x="1289.4856" y="345.587" width="38.9486" height="38.9486" fill="#a01f12" stroke-width="0"/><rect x="1250.537" y="306.6384" width="38.9486" height="38.9486" fill="#a01f12" stroke-width="0"/><rect x="1367.3754" y="423.4778" width="38.95" height="38.95" stroke-width="0"/><rect x="1406.3253" y="462.4278" width="38.9502" height="38.95" stroke-width="0"/><rect x="1445.2755" y="501.3777" width="38.95" height="38.95" stroke-width="0"/><rect x="1484.2255" y="540.3277" width="38.95" height="38.95" stroke-width="0"/><rect x="1523.1754" y="579.2776" width="38.95" height="38.9502" stroke-width="0"/><rect x="1562.1254" y="618.2278" width="38.9402" height="38.95" stroke-width="0"/><rect x="1562.1254" y="657.1778" width="38.9402" height="38.9399" stroke-width="0"/><rect x="1601.0753" y="696.1277" width="38.9502" height="38.95" stroke-width="0"/><rect x="1445.28" y="267.9411" width="38.9486" height="38.9486" fill="#deeaf1" stroke-width="0"/><rect x="1406.3306" y="228.7407" width="38.9486" height="38.9486" fill="#deeaf1" stroke-width="0"/><rect x="1367.3807" y="228.7407" width="38.9486" height="38.9486" fill="#b2c5cd" stroke-width="0"/><rect x="1289.4856" y="189.7907" width="38.9486" height="38.9486" fill="#deeaf1" stroke-width="0"/><rect x="1289.4856" y="150.844" width="38.9486" height="38.9486" fill="#b2c5cd" stroke-width="0"/><rect x="1562.1257" y="228.9925" width="38.9486" height="38.9486" fill="#deeaf1" stroke-width="0"/><rect x="1523.1756" y="228.9925" width="38.9486" height="38.9486" fill="#deeaf1" stroke-width="0"/><rect x="1484.2286" y="189.7907" width="38.9486" height="38.9486" fill="#deeaf1" stroke-width="0"/><rect x="1445.28" y="150.8407" width="38.9486" height="38.9486" fill="#deeaf1" stroke-width="0"/><rect x="1445.28" y="111.8908" width="38.9486" height="38.9486" fill="#deeaf1" stroke-width="0"/><rect x="1406.3306" y="111.8908" width="38.9486" height="38.9486" fill="#deeaf1" stroke-width="0"/><rect x="1367.3828" y="111.8908" width="38.9486" height="38.9486" fill="#deeaf1" stroke-width="0"/><rect x="1328.4307" y="72.9475" width="38.9486" height="38.9486" fill="#deeaf1" stroke-width="0"/><rect x="1640.0155" y="774.0176" width=".01" height="38.95" fill="#deeaf1" stroke-width="0"/><rect x="1640.0255" y="735.0777" width="38.95" height="38.9399" stroke-width="0"/><rect x="1640.0155" y="774.0176" width="38.95" height="38.95" stroke-width="0"/><rect x="1678.9701" y="812.97" width="38.95" height="38.95" stroke-width="0"/><rect x="1678.9701" y="851.92" width="38.95" height="38.95" stroke-width="0"/><rect x="1678.9701" y="890.87" width="38.95" height="38.95" stroke-width="0"/><rect x="1717.92" y="929.8199" width="38.95" height="38.9401" stroke-width="0"/><rect x="1717.92" y="968.76" width="38.95" height="38.9501" stroke-width="0"/><rect x="1717.92" y="1007.7101" width="38.95" height="38.95" stroke-width="0"/><rect x="1640.0199" y="812.97" width="38.9502" height="77.9" fill="#bad9f0" stroke-width="0"/><rect x="1601.0753" y="812.97" width="38.9502" height="77.9" fill="#bad9f0" stroke-width="0"/><rect x="1562.1308" y="812.97" width="38.9502" height="77.9" fill="#bad9f0" stroke-width="0"/><rect x="1523.1753" y="774.0176" width="38.9502" height="77.9" fill="#bad9f0" stroke-width="0"/><rect x="1717.92" y="1046.66" width="38.95" height="38.95" stroke-width="0"/><rect x="1717.92" y="1085.61" width="38.95" height="38.95" stroke-width="0"/><rect x="1678.9701" y="1124.5599" width="38.95" height="38.9501" stroke-width="0"/><rect x="1678.9716" y="1163.5076" width="38.9486" height="38.9486" stroke-width="0"/><rect x="1640.023" y="1202.4562" width="38.9486" height="38.9486" stroke-width="0"/><rect x="1640.0199" y="1163.51" width="38.9502" height="38.9501" fill="#647ca7" stroke-width="0"/><rect x="1601.0699" y="1202.4601" width="38.95" height="38.9399" fill="#647ca7" stroke-width="0"/><polygon points="1367.38 1280.35 1367.38 1319.2999 1640.0199 1319.2999 1640.0199 1280.35 1484.2299 1280.35 1484.2299 1241.4 1445.2799 1241.4 1445.2799 1280.35 1367.38 1280.35" fill="#647ca7" stroke-width="0"/><rect x="1562.13" y="1358.25" width="38.9399" height="38.9501" fill="#647ca7" stroke-width="0"/><rect x="1484.2299" y="1397.2001" width="38.9502" height="38.95" fill="#647ca7" stroke-width="0"/><rect x="1484.2286" y="1436.1478" width="38.9486" height="38.9486" fill="#647ca7" stroke-width="0"/><rect x="1523.1775" y="1436.1478" width="38.9486" height="38.9486" fill="#647ca7" stroke-width="0"/><rect x="1562.1263" y="1436.1478" width="38.9486" height="38.9486" fill="#647ca7" stroke-width="0"/><rect x="1601.0752" y="1436.1478" width="38.9486" height="38.9486" fill="#647ca7" stroke-width="0"/><rect x="1523.1807" y="1475.0964" width="38.9486" height="38.9486" fill="#8fade0" stroke-width="0"/><rect x="1562.1264" y="1475.0964" width="38.9486" height="38.9486" fill="#8fade0" stroke-width="0"/><rect x="1601.0722" y="1475.0964" width="38.9486" height="38.9486" fill="#8fade0" stroke-width="0"/><rect x="1640.0179" y="1475.0964" width="38.9486" height="38.9486" fill="#8fade0" stroke-width="0"/><rect x="1445.2799" y="1436.15" width="38.95" height="38.95" fill="#647ca7" stroke-width="0"/><rect x="1445.2799" y="1397.2001" width="38.95" height="38.95" fill="#647ca7" stroke-width="0"/><rect x="1406.33" y="1397.2001" width="38.95" height="38.95" fill="#647ca7" stroke-width="0"/><rect x="198.92" y="1397.2001" width="38.95" height="38.95" fill="#647ca7" stroke-width="0"/><rect x="237.87" y="1397.2001" width="38.95" height="38.95" fill="#647ca7" stroke-width="0"/><rect x="276.8199" y="1397.2001" width="38.95" height="38.95" fill="#647ca7" stroke-width="0"/><rect x="276.8199" y="1358.25" width="38.95" height="38.9501" fill="#647ca7" stroke-width="0"/><rect x="198.92" y="1319.2999" width="38.95" height="38.9501" fill="#647ca7" stroke-width="0"/><rect x="159.9762" y="1319.302" width="38.9486" height="38.9486" fill="#647ca7" stroke-width="0"/><rect x="159.98" y="1280.35" width="38.9401" height="38.95" fill="#647ca7" stroke-width="0"/><rect x="159.98" y="1241.4" width="38.9401" height="38.95" fill="#647ca7" stroke-width="0"/><rect x="121.0276" y="1241.4048" width="38.9486" height="38.9486" fill="#647ca7" stroke-width="0"/><rect x="121.0299" y="1202.4601" width="38.9501" height="38.9399" fill="#647ca7" stroke-width="0"/><rect x="82.08" y="1124.5599" width="38.95" height="38.9501" fill="#647ca7" stroke-width="0"/><rect x="82.08" y="1085.61" width="38.95" height="38.95" fill="#647ca7" stroke-width="0"/><rect x="315.7699" y="1397.2001" width="38.9502" height="38.95" fill="#647ca7" stroke-width="0"/><rect x="1601.0699" y="1241.4" width="38.95" height="38.95" stroke-width="0"/><rect x="1640.0199" y="1280.35" width="38.9502" height="38.95" stroke-width="0"/><rect x="1640.0199" y="1319.2999" width="38.9502" height="38.9501" stroke-width="0"/><rect x="1601.0699" y="1358.25" width="38.95" height="38.9501" stroke-width="0"/><rect x="1601.0744" y="1397.1992" width="38.9486" height="38.9486" stroke-width="0"/><rect x="1640.023" y="1436.1478" width="38.9486" height="38.9486" stroke-width="0"/><rect x="1678.9716" y="1475.0964" width="38.9486" height="38.9486" stroke-width="0"/><rect x="1640.023" y="1514.045" width="38.9486" height="38.9486" stroke-width="0"/><rect x="1601.0744" y="1514.045" width="38.9486" height="38.9486" stroke-width="0"/><rect x="1562.1258" y="1514.045" width="38.9486" height="38.9486" stroke-width="0"/><rect x="1523.1772" y="1514.045" width="38.9486" height="38.9486" stroke-width="0"/><rect x="1484.2286" y="1475.0964" width="38.9486" height="38.9486" stroke-width="0"/><rect x="1445.2799" y="1475.1" width="38.95" height="38.9401" stroke-width="0"/><rect x="1406.33" y="1514.04" width="38.95" height="38.95" stroke-width="0"/><rect x="1367.38" y="1514.04" width="38.95" height="38.95" stroke-width="0"/><rect x="1328.4301" y="1514.04" width="38.95" height="38.95" stroke-width="0"/><rect x="1289.4901" y="1514.04" width="38.9399" height="38.95" stroke-width="0"/><rect x="1250.5399" y="1514.04" width="38.9502" height="38.95" stroke-width="0"/><rect x="1211.59" y="1514.04" width="38.95" height="38.95" stroke-width="0"/><rect x="1172.64" y="1514.04" width="38.95" height="38.95" stroke-width="0"/><rect x="1133.6901" y="1514.04" width="38.95" height="38.95" stroke-width="0"/><rect x="1094.7401" y="1514.04" width="38.95" height="38.95" stroke-width="0"/><rect x="1055.7899" y="1552.99" width="38.9502" height="38.9501" stroke-width="0"/><rect x="1016.85" y="1552.99" width="38.9399" height="38.9501" stroke-width="0"/><rect x="977.9" y="1552.99" width="38.95" height="38.9501" stroke-width="0"/><rect x="938.9501" y="1552.99" width="38.95" height="38.9501" stroke-width="0"/><rect x="899.9999" y="1552.99" width="38.9502" height="38.9501" stroke-width="0"/><rect x="861.0499" y="1552.99" width="38.95" height="38.9501" stroke-width="0"/><rect x="822.1" y="1552.99" width="38.95" height="38.9501" stroke-width="0"/><rect x="783.15" y="1552.99" width="38.95" height="38.9501" stroke-width="0"/><rect x="744.2098" y="1552.99" width="38.9402" height="38.9501" stroke-width="0"/><rect x="705.2601" y="1552.99" width="38.9497" height="38.9501" stroke-width="0"/><rect x="666.3099" y="1552.99" width="38.9502" height="38.9501" stroke-width="0"/><rect x="627.36" y="1552.99" width="38.95" height="38.9501" stroke-width="0"/><rect x="588.41" y="1552.99" width="38.95" height="38.9501" stroke-width="0"/><rect x="549.4598" y="1552.99" width="38.9502" height="38.9501" stroke-width="0"/><rect x="510.5101" y="1552.99" width="38.9497" height="38.9501" stroke-width="0"/><rect x="471.5699" y="1514.04" width="38.9402" height="38.95" stroke-width="0"/><rect x="432.62" y="1514.04" width="38.95" height="38.95" stroke-width="0"/><rect x="393.67" y="1514.04" width="38.95" height="38.95" stroke-width="0"/><rect x="354.7201" y="1514.04" width="38.95" height="38.95" stroke-width="0"/><rect x="315.7699" y="1514.04" width="38.9502" height="38.95" stroke-width="0"/><rect x="276.8199" y="1514.04" width="38.95" height="38.95" stroke-width="0"/><rect x="237.87" y="1514.04" width="38.95" height="38.95" stroke-width="0"/><rect x="198.92" y="1514.04" width="38.95" height="38.95" stroke-width="0"/><rect x="159.98" y="1514.04" width="38.9401" height="38.95" stroke-width="0"/><rect x="121.0299" y="1514.04" width="38.9501" height="38.95" stroke-width="0"/><rect x="82.08" y="1514.04" width="38.95" height="38.95" stroke-width="0"/><rect x="43.13" y="1475.1" width="38.95" height="38.9401" stroke-width="0"/><rect x="82.08" y="1436.15" width="38.95" height="38.95" stroke-width="0"/><rect x="121.0299" y="1397.2001" width="38.9501" height="38.95" stroke-width="0"/><rect x="159.98" y="1397.2001" width="38.9401" height="38.95" stroke-width="0"/><rect x="159.9762" y="1358.2506" width="38.9486" height="38.9486" stroke-width="0"/><rect x="121.0276" y="1319.302" width="38.9486" height="38.9486" stroke-width="0"/><rect x="121.0276" y="1280.3534" width="38.9486" height="38.9486" stroke-width="0"/><rect x="82.079" y="1241.4048" width="38.9486" height="38.9486" stroke-width="0"/><rect x="82.079" y="1202.4562" width="38.9486" height="38.9486" stroke-width="0"/><rect x="82.08" y="1163.51" width="38.95" height="38.9501" stroke-width="0"/><rect x="43.1304" y="1124.559" width="38.9486" height="38.9486" stroke-width="0"/><rect x="43.1304" y="1085.6104" width="38.9486" height="38.9486" stroke-width="0"/><rect x="43.13" y="1046.66" width="38.95" height="38.95" stroke-width="0"/><rect x="43.13" y="1007.7101" width="38.95" height="38.95" stroke-width="0"/><rect x="43.13" y="968.76" width="38.95" height="38.9501" stroke-width="0"/><rect x="198.9248" y="1358.2506" width="38.9486" height="38.9486" stroke-width="0"/><rect x="237.87" y="1358.25" width="38.95" height="38.9501" stroke-width="0"/><rect x="1562.1258" y="1397.1992" width="38.9486" height="38.9486" stroke-width="0"/><rect x="1523.1801" y="1397.2001" width="38.95" height="38.95" stroke-width="0"/><rect x="1562.13" y="1241.4" width="38.9399" height="38.95" stroke-width="0"/><rect x="1523.1801" y="1241.4" width="38.95" height="38.95" stroke-width="0"/><rect x="1484.2299" y="1241.4" width="38.9502" height="38.95" stroke-width="0"/><polygon points="1640.0255 735.0777 1640.0255 774.0176 1640.0155 774.0176 1640.0155 812.9676 1601.0753 812.9676 1601.0753 774.0176 1484.2455 774.0176 1484.2455 735.0777 1640.0255 735.0777" fill="#deeaf1" stroke-width="0"/><rect x="1562.1254" y="696.1377" width="38.9402" height="38.9299" fill="#deeaf1" stroke-width="0"/><rect x="1523.1803" y="696.1377" width="38.9402" height="38.9299" fill="#deeaf1" stroke-width="0"/><rect x="1562.1358" y="774.0276" width="38.9402" height="38.9299" fill="#deeaf1" stroke-width="0"/><rect x="1562.1358" y="890.88" width="38.9402" height="38.9299" fill="#8fade0" stroke-width="0"/><rect x="1601.0803" y="890.88" width="38.9402" height="38.9299" fill="#8fade0" stroke-width="0"/><rect x="1601.0803" y="929.8253" width="38.9402" height="38.9299" fill="#8fade0" stroke-width="0"/><rect x="1601.0803" y="968.7701" width="38.9402" height="38.9299" fill="#8fade0" stroke-width="0"/><rect x="1640.0304" y="968.7701" width="38.9402" height="38.9299" fill="#8fade0" stroke-width="0"/><rect x="1640.0304" y="1007.7201" width="38.9402" height="38.9299" fill="#8fade0" stroke-width="0"/><rect x="1484.2304" y="696.1377" width="38.9402" height="38.9299" fill="#deeaf1" stroke-width="0"/><rect x="1484.2304" y="657.1828" width="38.9402" height="38.9299" fill="#deeaf1" stroke-width="0"/><rect x="1445.3053" y="657.1828" width="38.9402" height="38.9299" fill="#deeaf1" stroke-width="0"/><rect x="1445.3053" y="618.2378" width="38.9402" height="38.9299" fill="#deeaf1" stroke-width="0"/><rect x="1367.3754" y="462.4278" width=".01" height=".01" fill="#deeaf1" stroke-width="0"/><rect x="393.6654" y="501.3777" width="38.9501" height="38.95" stroke-width="0"/><rect x="1367.3872" y="540.3277" width="38.9399" height="38.95" fill="#b2c5cd" stroke-width="0"/><rect x="1289.4816" y="540.3277" width="38.9399" height="38.95" fill="#b2c5cd" stroke-width="0"/><rect x="1367.3872" y="579.2776" width="38.9399" height="38.9502" fill="#b2c5cd" stroke-width="0"/><rect x="1211.5855" y="540.3277" width="38.95" height="38.95" fill="#b2c5cd" stroke-width="0"/><rect x="1172.6355" y="579.2776" width="38.95" height="38.9502" fill="#b2c5cd" stroke-width="0"/><rect x="1133.6906" y="579.2776" width="38.95" height="38.9502" fill="#deeaf1" stroke-width="0"/><rect x="1133.6906" y="540.3275" width="38.95" height="38.9502" fill="#deeaf1" stroke-width="0"/><rect x="1172.6392" y="501.3776" width="38.95" height="38.9502" fill="#deeaf1" stroke-width="0"/><rect x="1172.6392" y="462.4327" width="38.95" height="38.9502" fill="#deeaf1" stroke-width="0"/><rect x="1172.6355" y="618.2278" width="38.95" height="38.95" fill="#b2c5cd" stroke-width="0"/><rect x="977.9004" y="540.3277" width="38.9401" height="38.95" fill="#b2c5cd" stroke-width="0"/><rect x="1016.8455" y="540.3277" width="38.9401" height="38.95" fill="#b2c5cd" stroke-width="0"/><rect x="1055.7905" y="501.3777" width="38.9401" height="38.95" fill="#b2c5cd" stroke-width="0"/><rect x="1094.7404" y="501.3777" width="38.9401" height="38.95" fill="#b2c5cd" stroke-width="0"/><rect x="1133.6955" y="462.4278" width="38.9401" height="38.95" fill="#b2c5cd" stroke-width="0"/><rect x="938.9455" y="579.2776" width="38.95" height="38.95" fill="#b2c5cd" stroke-width="0"/><rect x="899.9955" y="579.2776" width="38.95" height="38.95" fill="#b2c5cd" stroke-width="0"/><polygon points="159.9802 812.97 159.9802 890.87 393.6703 890.87 393.6703 929.8199 1406.3302 929.8199 1406.3302 890.87 1562.1302 890.87 1562.1302 851.92 1523.1803 851.92 1523.1803 774.02 1328.4303 774.02 1328.4303 735.07 510.5103 735.07 510.5103 774.02 237.8702 774.02 237.8702 812.97 159.9802 812.97" fill="#bad9f0" stroke-width="0"/><polygon points="82.0802 968.76 82.0802 1085.61 121.0301 1085.61 121.0301 1202.4601 159.9802 1202.4601 159.9802 1241.4 198.9203 1241.4 198.9203 1319.2999 237.8702 1319.2999 237.8702 1358.25 315.7701 1358.25 315.7701 1397.2001 354.7203 1397.2001 354.7203 1436.15 121.0301 1436.15 121.0301 1475.1 82.0802 1475.1 82.0802 1514.04 510.5103 1514.04 510.5103 1552.99 1094.7403 1552.99 1094.7403 1514.04 1445.2801 1514.04 1445.2801 1436.15 1406.3302 1436.15 1406.3302 1397.2001 1562.1302 1397.2001 1562.1302 1358.25 1640.0201 1358.25 1640.0201 1319.2999 1367.3802 1319.2999 1367.3802 1280.35 1445.2801 1280.35 1445.2801 1241.4 1601.0702 1241.4 1601.0702 1202.4601 1640.0201 1202.4601 1640.0201 1163.51 1678.9703 1163.51 1678.9703 1124.5599 1717.9203 1124.5599 1717.9203 929.8199 1678.9703 929.8199 1678.9703 890.87 1640.0201 890.87 1640.0201 968.76 1678.9703 968.76 1678.9703 1046.66 1640.0201 1046.66 1640.0201 1007.7101 1601.0702 1007.7101 1601.0702 929.8199 1562.1302 929.8199 1562.1302 890.87 1406.3302 890.87 1406.3302 929.8199 393.6703 929.8199 393.6703 890.87 159.9802 890.87 159.9802 851.92 121.0301 851.92 121.0301 968.76 82.0802 968.76" fill="#8fade0" stroke-width="0"/><rect x="822.1037" y="851.9457" width="38.9486" height="38.9486" fill="#7b90ba" stroke-width="0"/><rect x="861.0523" y="851.9457" width="38.9486" height="38.9486" fill="#7b90ba" stroke-width="0"/><rect x="900.0009" y="851.9457" width="38.9486" height="38.9486" fill="#7b90ba" stroke-width="0"/><rect x="938.9495" y="851.9457" width="38.9486" height="38.9486" fill="#7b90ba" stroke-width="0"/><rect x="977.8981" y="851.9457" width="38.9486" height="38.9486" fill="#7b90ba" stroke-width="0"/><rect x="783.1551" y="890.8943" width="38.9486" height="38.9486" fill="#7b90ba" stroke-width="0"/><rect x="822.1037" y="890.8943" width="38.9486" height="38.9486" fill="#c1cde2" stroke-width="0"/><rect x="861.0523" y="890.8943" width="38.9486" height="38.9486" fill="#7b90ba" stroke-width="0"/><rect x="900.0009" y="890.8943" width="38.9486" height="38.9486" fill="#c1cde2" stroke-width="0"/><rect x="938.9495" y="890.8943" width="38.9486" height="38.9486" fill="#7b90ba" stroke-width="0"/><rect x="977.8981" y="890.8943" width="38.9486" height="38.9486" fill="#e4e4e4" stroke-width="0"/><rect x="1016.8467" y="890.8943" width="38.9486" height="38.9486" fill="#7b90ba" stroke-width="0"/><rect x="822.1037" y="929.8429" width="38.9486" height="38.9486" fill="#7b90ba" stroke-width="0"/><rect x="861.0523" y="929.8429" width="38.9486" height="38.9486" fill="#c1cde2" stroke-width="0"/><rect x="900.0009" y="929.8429" width="38.9486" height="38.9486" fill="#7b90ba" stroke-width="0"/><rect x="938.9495" y="929.8429" width="38.9486" height="38.9486" fill="#c1cde2" stroke-width="0"/><rect x="977.8981" y="929.8429" width="38.9486" height="38.9486" fill="#7b90ba" stroke-width="0"/><rect x="1016.8467" y="929.8429" width="38.9486" height="38.9486" fill="#e4e4e4" stroke-width="0"/><rect x="1055.7953" y="929.8429" width="38.9486" height="38.9486" fill="#7b90ba" stroke-width="0"/><rect x="1094.7439" y="929.8429" width="38.9486" height="38.9486" fill="#7b90ba" stroke-width="0"/><rect x="1133.6925" y="929.8429" width="38.9486" height="38.9486" fill="#7b90ba" stroke-width="0"/><rect x="354.7205" y="968.7915" width="38.9486" height="38.9486" fill="#554f74" stroke-width="0"/><rect x="393.6691" y="968.7915" width="38.9486" height="38.9486" fill="#554f74" stroke-width="0"/><rect x="432.6177" y="968.7915" width="38.9486" height="38.9486" fill="#554f74" stroke-width="0"/><rect x="783.1551" y="968.7915" width="38.9486" height="38.9486" fill="#7b90ba" stroke-width="0"/><rect x="822.1037" y="968.7915" width="38.9486" height="38.9486" fill="#7b90ba" stroke-width="0"/><rect x="861.0523" y="968.7915" width="38.9486" height="38.9486" fill="#7b90ba" stroke-width="0"/><rect x="900.0009" y="968.7915" width="38.9486" height="38.9486" fill="#c1cde2" stroke-width="0"/><rect x="938.9495" y="968.7915" width="38.9486" height="38.9486" fill="#e4e4e4" stroke-width="0"/><rect x="977.8981" y="968.7915" width="38.9486" height="38.9486" fill="#c1cde2" stroke-width="0"/><rect x="1016.8467" y="968.7915" width="38.9486" height="38.9486" fill="#e4e4e4" stroke-width="0"/><rect x="1055.7953" y="968.7915" width="38.9486" height="38.9486" fill="#c1cde2" stroke-width="0"/><rect x="1094.7439" y="968.7915" width="38.9486" height="38.9486" fill="#c1cde2" stroke-width="0"/><rect x="1133.6925" y="968.7915" width="38.9486" height="38.9486" fill="#e4e4e4" stroke-width="0"/><rect x="1172.6411" y="968.7915" width="38.9486" height="38.9486" fill="#7b90ba" stroke-width="0"/><rect x="1211.5897" y="968.7915" width="38.9486" height="38.9486" fill="#7b90ba" stroke-width="0"/><rect x="354.7205" y="1007.7401" width="38.9486" height="38.9486" fill="#554f74" stroke-width="0"/><rect x="393.6691" y="1007.7401" width="38.9486" height="38.9486" fill="#7b90ba" stroke-width="0"/><rect x="432.6177" y="1007.7401" width="38.9486" height="38.9486" fill="#c1cde2" stroke-width="0"/><rect x="471.5663" y="1007.7401" width="38.9486" height="38.9486" fill="#554f74" stroke-width="0"/><rect x="666.3093" y="1007.7401" width="38.9486" height="38.9486" fill="#7b90ba" stroke-width="0"/><rect x="705.2579" y="1007.7401" width="38.9486" height="38.9486" fill="#7b90ba" stroke-width="0"/><rect x="744.2065" y="1007.7401" width="38.9486" height="38.9486" fill="#7b90ba" stroke-width="0"/><rect x="783.1551" y="1007.7401" width="38.9486" height="38.9486" fill="#e4e4e4" stroke-width="0"/><rect x="822.1037" y="1007.7401" width="38.9486" height="38.9486" fill="#c1cde2" stroke-width="0"/><rect x="861.0523" y="1007.7401" width="38.9486" height="38.9486" fill="#e4e4e4" stroke-width="0"/><rect x="900.0009" y="1007.7401" width="38.9486" height="38.9486" fill="#c1cde2" stroke-width="0"/><rect x="938.9495" y="1007.7401" width="38.9486" height="38.9486" fill="#c1cde2" stroke-width="0"/><rect x="977.8981" y="1007.7401" width="38.9486" height="38.9486" fill="#e4e4e4" stroke-width="0"/><rect x="1016.8467" y="1007.7401" width="38.9486" height="38.9486" fill="#c1cde2" stroke-width="0"/><rect x="1055.7953" y="1007.7401" width="38.9486" height="38.9486" fill="#c1cde2" stroke-width="0"/><rect x="1094.7439" y="1007.7401" width="38.9486" height="38.9486" fill="#e4e4e4" stroke-width="0"/><rect x="1133.6925" y="1007.7401" width="38.9486" height="38.9486" fill="#c1cde2" stroke-width="0"/><rect x="1172.6411" y="1007.7401" width="38.9486" height="38.9486" fill="#c1cde2" stroke-width="0"/><rect x="1211.5897" y="1007.7401" width="38.9486" height="38.9486" fill="#c1cde2" stroke-width="0"/><rect x="1250.5383" y="1007.7401" width="38.9486" height="38.9486" fill="#7b90ba" stroke-width="0"/><rect x="1289.4869" y="1007.7401" width="38.9486" height="38.9486" fill="#7b90ba" stroke-width="0"/><rect x="393.6691" y="1046.6887" width="38.9486" height="38.9486" fill="#554f74" stroke-width="0"/><rect x="432.6177" y="1046.6887" width="38.9486" height="38.9486" fill="#7b90ba" stroke-width="0"/><rect x="471.5663" y="1046.6887" width="38.9486" height="38.9486" fill="#c1cde2" stroke-width="0"/><rect x="510.5149" y="1046.6887" width="38.9486" height="38.9486" fill="#554f74" stroke-width="0"/><rect x="549.4635" y="1046.6887" width="38.9486" height="38.9486" fill="#554f74" stroke-width="0"/><rect x="627.3607" y="1046.6887" width="38.9486" height="38.9486" fill="#7b90ba" stroke-width="0"/><rect x="666.3093" y="1046.6887" width="38.9486" height="38.9486" fill="#7b90ba" stroke-width="0"/><rect x="705.2579" y="1046.6887" width="38.9486" height="38.9486" fill="#c1cde2" stroke-width="0"/><rect x="744.2065" y="1046.6887" width="38.9486" height="38.9486" fill="#c1cde2" stroke-width="0"/><rect x="783.1551" y="1046.6887" width="38.9486" height="38.9486" fill="#c1cde2" stroke-width="0"/><rect x="822.1037" y="1046.6887" width="38.9486" height="38.9486" fill="#c1cde2" stroke-width="0"/><rect x="861.0523" y="1046.6887" width="38.9486" height="38.9486" fill="#c1cde2" stroke-width="0"/><rect x="900.0009" y="1046.6887" width="38.9486" height="38.9486" fill="#c1cde2" stroke-width="0"/><rect x="938.9495" y="1046.6887" width="38.9486" height="38.9486" fill="#c1cde2" stroke-width="0"/><rect x="977.8981" y="1046.6887" width="38.9486" height="38.9486" fill="#c1cde2" stroke-width="0"/><rect x="1016.8467" y="1046.6887" width="38.9486" height="38.9486" fill="#c1cde2" stroke-width="0"/><rect x="1055.7953" y="1046.6887" width="38.9486" height="38.9486" fill="#c1cde2" stroke-width="0"/><rect x="1094.7439" y="1046.6887" width="38.9486" height="38.9486" fill="#c1cde2" stroke-width="0"/><rect x="1133.6925" y="1046.6887" width="38.9486" height="38.9486" fill="#c1cde2" stroke-width="0"/><rect x="1172.6411" y="1046.6887" width="38.9486" height="38.9486" fill="#c1cde2" stroke-width="0"/><rect x="1211.5897" y="1046.6887" width="38.9486" height="38.9486" fill="#edede8" stroke-width="0"/><rect x="1250.5383" y="1046.6887" width="38.9486" height="38.9486" fill="#17120b" stroke-width="0"/><rect x="1289.4869" y="1046.6887" width="38.9486" height="38.9486" fill="#c1cde2" stroke-width="0"/><rect x="1328.4355" y="1046.6887" width="38.9486" height="38.9486" fill="#7b90ba" stroke-width="0"/><rect x="432.6177" y="1085.6373" width="38.9486" height="38.9486" fill="#554f74" stroke-width="0"/><rect x="471.5663" y="1085.6373" width="38.9486" height="38.9486" fill="#7b90ba" stroke-width="0"/><rect x="510.5149" y="1085.6373" width="38.9486" height="38.9486" fill="#c1cde2" stroke-width="0"/><rect x="549.4635" y="1085.6373" width="38.9486" height="38.9486" fill="#c1cde2" stroke-width="0"/><rect x="588.4121" y="1085.6373" width="38.9486" height="38.9486" fill="#554f74" stroke-width="0"/><rect x="627.3607" y="1085.6373" width="38.9486" height="38.9486" fill="#7b90ba" stroke-width="0"/><rect x="666.3093" y="1085.6373" width="38.9486" height="38.9486" fill="#c1cde2" stroke-width="0"/><rect x="705.2579" y="1085.6373" width="38.9486" height="38.9486" fill="#7b90ba" stroke-width="0"/><rect x="744.2065" y="1085.6373" width="38.9486" height="38.9486" fill="#c1cde2" stroke-width="0"/><rect x="783.1551" y="1085.6373" width="38.9486" height="38.9486" fill="#c1cde2" stroke-width="0"/><rect x="822.1037" y="1085.6373" width="38.9486" height="38.9486" fill="#c1cde2" stroke-width="0"/><rect x="861.0523" y="1085.6373" width="38.9486" height="38.9486" fill="#c1cde2" stroke-width="0"/><rect x="900.0009" y="1085.6373" width="38.9486" height="38.9486" fill="#c1cde2" stroke-width="0"/><rect x="938.9495" y="1085.6373" width="38.9486" height="38.9486" fill="#c1cde2" stroke-width="0"/><rect x="977.8981" y="1085.6373" width="38.9486" height="38.9486" fill="#c1cde2" stroke-width="0"/><rect x="1016.8467" y="1085.6373" width="38.9486" height="38.9486" fill="#c1cde2" stroke-width="0"/><rect x="1055.7953" y="1085.6373" width="38.9486" height="38.9486" fill="#c1cde2" stroke-width="0"/><rect x="1094.7439" y="1085.6373" width="38.9486" height="38.9486" fill="#c1cde2" stroke-width="0"/><rect x="1133.6925" y="1085.6373" width="38.9486" height="38.9486" fill="#7b90ba" stroke-width="0"/><rect x="1172.6411" y="1085.6373" width="38.9486" height="38.9486" fill="#c1cde2" stroke-width="0"/><rect x="1211.5897" y="1085.6373" width="38.9486" height="38.9486" fill="#ededed" stroke-width="0"/><rect x="1250.5383" y="1085.6373" width="38.9486" height="38.9486" fill="#17120b" stroke-width="0"/><rect x="1289.4869" y="1085.6373" width="38.9486" height="38.9486" fill="#c1cde2" stroke-width="0"/><rect x="1328.4355" y="1085.6373" width="38.9486" height="38.9486" fill="#c1cde2" stroke-width="0"/><rect x="1367.3841" y="1085.6373" width="38.9486" height="38.9486" fill="#554f74" stroke-width="0"/><rect x="432.6177" y="1124.5859" width="38.9486" height="38.9486" fill="#554f74" stroke-width="0"/><rect x="471.5663" y="1124.5859" width="38.9486" height="38.9486" fill="#c1cde2" stroke-width="0"/><rect x="510.5149" y="1124.5859" width="38.9486" height="38.9486" fill="#7b90ba" stroke-width="0"/><rect x="549.4635" y="1124.5859" width="38.9486" height="38.9486" fill="#7b90ba" stroke-width="0"/><rect x="588.4121" y="1124.5859" width="38.9486" height="38.9486" fill="#554f74" stroke-width="0"/><rect x="627.3607" y="1124.5859" width="38.9486" height="38.9486" fill="#7b90ba" stroke-width="0"/><rect x="666.3093" y="1124.5859" width="38.9486" height="38.9486" fill="#7b90ba" stroke-width="0"/><rect x="705.2579" y="1124.5859" width="38.9486" height="38.9486" fill="#c1cde2" stroke-width="0"/><rect x="744.2065" y="1124.5859" width="38.9486" height="38.9486" fill="#7b90ba" stroke-width="0"/><rect x="783.1551" y="1124.5859" width="38.9486" height="38.9486" fill="#c1cde2" stroke-width="0"/><rect x="822.1037" y="1124.5859" width="38.9486" height="38.9486" fill="#7b90ba" stroke-width="0"/><rect x="861.0523" y="1124.5859" width="38.9486" height="38.9486" fill="#c1cde2" stroke-width="0"/><rect x="900.0009" y="1124.5859" width="38.9486" height="38.9486" fill="#c1cde2" stroke-width="0"/><rect x="938.9495" y="1124.5859" width="38.9486" height="38.9486" fill="#c1cde2" stroke-width="0"/><rect x="977.8981" y="1124.5859" width="38.9486" height="38.9486" fill="#c1cde2" stroke-width="0"/><rect x="1016.8467" y="1124.5859" width="38.9486" height="38.9486" fill="#c1cde2" stroke-width="0"/><rect x="1055.7953" y="1124.5859" width="38.9486" height="38.9486" fill="#7b90ba" stroke-width="0"/><rect x="1094.7439" y="1124.5859" width="38.9486" height="38.9486" fill="#c1cde2" stroke-width="0"/><rect x="1133.6925" y="1124.5859" width="38.9486" height="38.9486" fill="#7b90ba" stroke-width="0"/><rect x="1172.6411" y="1124.5859" width="38.9486" height="38.9486" fill="#7b90ba" stroke-width="0"/><rect x="1211.5897" y="1124.5859" width="38.9486" height="38.9486" fill="#c1cde2" stroke-width="0"/><rect x="1250.5383" y="1124.5859" width="38.9486" height="38.9486" fill="#c1cde2" stroke-width="0"/><rect x="1289.4869" y="1124.5859" width="38.9486" height="38.9486" fill="#c1cde2" stroke-width="0"/><rect x="1328.4355" y="1124.5859" width="38.9486" height="38.9486" fill="#7b90ba" stroke-width="0"/><rect x="1367.3841" y="1124.5859" width="38.9486" height="38.9486" fill="#554f74" stroke-width="0"/><rect x="393.6691" y="1163.5345" width="38.9486" height="38.9486" fill="#554f74" stroke-width="0"/><rect x="432.6177" y="1163.5345" width="38.9486" height="38.9486" fill="#c1cde2" stroke-width="0"/><rect x="471.5663" y="1163.5345" width="38.9486" height="38.9486" fill="#7b90ba" stroke-width="0"/><rect x="510.5149" y="1163.5345" width="38.9486" height="38.9486" fill="#554f74" stroke-width="0"/><rect x="549.4635" y="1163.5345" width="38.9486" height="38.9486" fill="#554f74" stroke-width="0"/><rect x="627.3607" y="1163.5345" width="38.9486" height="38.9486" fill="#554f74" stroke-width="0"/><rect x="666.3093" y="1163.5345" width="38.9486" height="38.9486" fill="#554f74" stroke-width="0"/><rect x="705.2579" y="1163.5345" width="38.9486" height="38.9486" fill="#7b90ba" stroke-width="0"/><rect x="744.2065" y="1163.5345" width="38.9486" height="38.9486" fill="#7b90ba" stroke-width="0"/><rect x="783.1551" y="1163.5345" width="38.9486" height="38.9486" fill="#7b90ba" stroke-width="0"/><rect x="822.1037" y="1163.5345" width="38.9486" height="38.9486" fill="#c1cde2" stroke-width="0"/><rect x="861.0523" y="1163.5345" width="38.9486" height="38.9486" fill="#7b90ba" stroke-width="0"/><rect x="900.0009" y="1163.5345" width="38.9486" height="38.9486" fill="#c1cde2" stroke-width="0"/><rect x="938.9495" y="1163.5345" width="38.9486" height="38.9486" fill="#7b90ba" stroke-width="0"/><rect x="977.8981" y="1163.5345" width="38.9486" height="38.9486" fill="#c1cde2" stroke-width="0"/><rect x="1016.8467" y="1163.5345" width="38.9486" height="38.9486" fill="#7b90ba" stroke-width="0"/><rect x="1055.7953" y="1163.5345" width="38.9486" height="38.9486" fill="#c1cde2" stroke-width="0"/><rect x="1094.7439" y="1163.5345" width="38.9486" height="38.9486" fill="#7b90ba" stroke-width="0"/><rect x="1133.6925" y="1163.5345" width="38.9486" height="38.9486" fill="#c1cde2" stroke-width="0"/><rect x="1172.6411" y="1163.5345" width="38.9486" height="38.9486" fill="#7b90ba" stroke-width="0"/><rect x="1211.5897" y="1163.5345" width="38.9486" height="38.9486" fill="#7b90ba" stroke-width="0"/><rect x="1250.5383" y="1163.5345" width="38.9486" height="38.9486" fill="#7b90ba" stroke-width="0"/><rect x="1289.4869" y="1163.5345" width="38.9486" height="38.9486" fill="#7b90ba" stroke-width="0"/><rect x="1328.4355" y="1163.5345" width="38.9486" height="38.9486" fill="#554f74" stroke-width="0"/><rect x="354.7205" y="1202.4831" width="38.9486" height="38.9486" fill="#554f74" stroke-width="0"/><rect x="393.6691" y="1202.4831" width="38.9486" height="38.9486" fill="#c1cde2" stroke-width="0"/><rect x="432.6177" y="1202.4831" width="38.9486" height="38.9486" fill="#7b90ba" stroke-width="0"/><rect x="471.5663" y="1202.4831" width="38.9486" height="38.9486" fill="#554f74" stroke-width="0"/><rect x="666.3093" y="1202.4831" width="38.9486" height="38.9486" fill="#554f74" stroke-width="0"/><rect x="705.2579" y="1202.4831" width="38.9486" height="38.9486" fill="#554f74" stroke-width="0"/><rect x="744.2065" y="1202.4831" width="38.9486" height="38.9486" fill="#554f74" stroke-width="0"/><rect x="783.1551" y="1202.4831" width="38.9486" height="38.9486" fill="#7b90ba" stroke-width="0"/><rect x="822.1037" y="1202.4831" width="38.9486" height="38.9486" fill="#7b90ba" stroke-width="0"/><rect x="861.0523" y="1202.4831" width="38.9486" height="38.9486" fill="#7b90ba" stroke-width="0"/><rect x="900.0009" y="1202.4831" width="38.9486" height="38.9486" fill="#7b90ba" stroke-width="0"/><rect x="938.9495" y="1202.4831" width="38.9486" height="38.9486" fill="#c1cde2" stroke-width="0"/><rect x="977.8981" y="1202.4831" width="38.9486" height="38.9486" fill="#7b90ba" stroke-width="0"/><rect x="1016.8467" y="1202.4831" width="38.9486" height="38.9486" fill="#7b90ba" stroke-width="0"/><rect x="1055.7953" y="1202.4831" width="38.9486" height="38.9486" fill="#7b90ba" stroke-width="0"/><rect x="1094.7439" y="1202.4831" width="38.9486" height="38.9486" fill="#7b90ba" stroke-width="0"/><rect x="1133.6925" y="1202.4831" width="38.9486" height="38.9486" fill="#7b90ba" stroke-width="0"/><rect x="1172.6411" y="1202.4831" width="38.9486" height="38.9486" fill="#c1cde2" stroke-width="0"/><rect x="1211.5897" y="1202.4831" width="38.9486" height="38.9486" fill="#7b90ba" stroke-width="0"/><rect x="1250.5383" y="1202.4831" width="38.9486" height="38.9486" fill="#554f74" stroke-width="0"/><rect x="1289.4869" y="1202.4831" width="38.9486" height="38.9486" fill="#554f74" stroke-width="0"/><rect x="354.7205" y="1241.4317" width="38.9486" height="38.9486" fill="#554f74" stroke-width="0"/><rect x="393.6691" y="1241.4317" width="38.9486" height="38.9486" fill="#554f74" stroke-width="0"/><rect x="432.6177" y="1241.4317" width="38.9486" height="38.9486" fill="#554f74" stroke-width="0"/><rect x="783.1551" y="1241.4317" width="38.9486" height="38.9486" fill="#554f74" stroke-width="0"/><rect x="822.1037" y="1241.4317" width="38.9486" height="38.9486" fill="#554f74" stroke-width="0"/><rect x="861.0523" y="1241.4317" width="38.9486" height="38.9486" fill="#554f74" stroke-width="0"/><rect x="900.0009" y="1241.4317" width="38.9486" height="38.9486" fill="#7b90ba" stroke-width="0"/><rect x="938.9495" y="1241.4317" width="38.9486" height="38.9486" fill="#7b90ba" stroke-width="0"/><rect x="977.8981" y="1241.4317" width="38.9486" height="38.9486" fill="#7b90ba" stroke-width="0"/><rect x="1016.8467" y="1241.4317" width="38.9486" height="38.9486" fill="#7b90ba" stroke-width="0"/><rect x="1055.7953" y="1241.4317" width="38.9486" height="38.9486" fill="#c1cde2" stroke-width="0"/><rect x="1094.7439" y="1241.4317" width="38.9486" height="38.9486" fill="#7b90ba" stroke-width="0"/><rect x="1133.6925" y="1241.4317" width="38.9486" height="38.9486" fill="#7b90ba" stroke-width="0"/><rect x="1172.6411" y="1241.4317" width="38.9486" height="38.9486" fill="#554f74" stroke-width="0"/><rect x="1211.5897" y="1241.4317" width="38.9486" height="38.9486" fill="#554f74" stroke-width="0"/><rect x="900.0009" y="1280.3803" width="38.9486" height="38.9486" fill="#554f74" stroke-width="0"/><rect x="938.9495" y="1280.3803" width="38.9486" height="38.9486" fill="#554f74" stroke-width="0"/><rect x="977.8981" y="1280.3803" width="38.9486" height="38.9486" fill="#554f74" stroke-width="0"/><rect x="1016.8467" y="1280.3803" width="38.9486" height="38.9486" fill="#554f74" stroke-width="0"/><rect x="1055.7953" y="1280.3803" width="38.9486" height="38.9486" fill="#554f74" stroke-width="0"/><rect x="1094.7439" y="1280.3803" width="38.9486" height="38.9486" fill="#554f74" stroke-width="0"/><rect x="1133.6925" y="1280.3803" width="38.9486" height="38.9486" fill="#554f74" stroke-width="0"/><rect x="938.9495" y="1319.3289" width="38.9486" height="38.9486" fill="#554f74" stroke-width="0"/><rect x="977.8981" y="1319.3289" width="38.9486" height="38.9486" fill="#7b90ba" stroke-width="0"/><rect x="1016.8467" y="1319.3289" width="38.9486" height="38.9486" fill="#7b90ba" stroke-width="0"/><rect x="1055.7953" y="1319.3289" width="38.9486" height="38.9486" fill="#554f74" stroke-width="0"/><rect x="938.9495" y="1358.2775" width="38.9486" height="38.9486" fill="#554f74" stroke-width="0"/><rect x="977.8981" y="1358.2775" width="38.9486" height="38.9486" fill="#7b90ba" stroke-width="0"/><rect x="1016.8467" y="1358.2775" width="38.9486" height="38.9486" fill="#554f74" stroke-width="0"/><rect x="977.8981" y="1397.2261" width="38.9486" height="38.9486" fill="#554f74" stroke-width="0"/><polygon points="82.0802 968.76 82.0802 1085.61 121.0301 1085.61 121.0301 1202.4601 159.9802 1202.4601 159.9802 1241.4 198.9203 1241.4 198.9203 1319.2999 237.8702 1319.2999 237.8702 1358.25 315.7701 1358.25 315.7701 1397.2001 354.7203 1397.2001 354.7203 1436.15 121.0301 1436.15 121.0301 1475.1 82.0802 1475.1 82.0802 1514.04 510.5103 1514.04 510.5103 1552.99 1094.7403 1552.99 1094.7403 1514.04 1445.2801 1514.04 1445.2801 1436.15 1406.3302 1436.15 1406.3302 1397.2001 1562.1302 1397.2001 1562.1302 1358.25 1640.0201 1358.25 1640.0201 1319.2999 1367.3802 1319.2999 1367.3802 1280.35 1445.2801 1280.35 1445.2801 1241.4 1601.0702 1241.4 1601.0702 1202.4601 1640.0201 1202.4601 1640.0201 1163.51 1678.9703 1163.51 1678.9703 1124.5599 1717.9203 1124.5599 1717.9203 929.8199 1678.9703 929.8199 1678.9703 890.87 1640.0201 890.87 1640.0201 968.76 1678.9703 968.76 1678.9703 1046.66 1640.0201 1046.66 1640.0201 1007.7101 1601.0702 1007.7101 1601.0702 929.8199 1562.1302 929.8199 1562.1302 890.87 1406.3302 890.87 1406.3302 929.8199 393.6703 929.8199 393.6703 890.87 159.9802 890.87 159.9802 851.92 121.0301 851.92 121.0301 968.76 82.0802 968.76" fill="#8fade0" opacity=".4" stroke-width="0"/><polygon points="432.6202 579.2815 432.6202 657.1715 393.6703 657.1715 393.6703 735.0715 354.7201 735.0715 354.7201 812.9715 315.7701 812.9715 315.7701 890.8715 276.8302 890.8715 276.8302 968.7616 237.8802 968.7616 237.8802 1007.7116 198.93 1007.7116 198.93 929.8115 237.8802 929.8115 237.8802 774.0216 276.8302 774.0216 276.8302 696.1215 315.7701 696.1215 315.7701 657.1715 354.7201 657.1715 354.7201 618.2315 393.6703 618.2315 393.6703 579.2815 432.6202 579.2815" fill="#faffff" stroke-width="0"/><rect x="432.6202" y="540.3316" width="38.95" height="38.95" fill="#faffff" stroke-width="0"/></svg>