<?xml version="1.0" encoding="UTF-8"?><svg id="_ëÎÓÈ_3" xmlns="http://www.w3.org/2000/svg" width="1200" height="900" viewBox="0 0 1200 900"><rect x="366.3084" y="138.4112" width="38.9486" height="38.9486" fill="#d2742e" stroke-width="0"/><rect x="405.257" y="138.4112" width="38.9486" height="38.9486" fill="#d2742e" stroke-width="0"/><rect x="444.2056" y="138.4112" width="38.9486" height="38.9486" fill="#d2742e" stroke-width="0"/><rect x="483.1542" y="138.4112" width="38.9486" height="38.9486" fill="#7b90ba" stroke-width="0"/><rect x="522.1028" y="138.4112" width="38.9486" height="38.9486" fill="#7b90ba" stroke-width="0"/><rect x="327.3598" y="177.3598" width="38.9486" height="38.9486" fill="#d2742e" stroke-width="0"/><rect x="366.3084" y="177.3598" width="38.9486" height="38.9486" fill="#ebc24f" stroke-width="0"/><rect x="405.257" y="177.3598" width="38.9486" height="38.9486" fill="#d2742e" stroke-width="0"/><rect x="444.2056" y="177.3598" width="38.9486" height="38.9486" fill="#ebc24f" stroke-width="0"/><rect x="483.1542" y="177.3598" width="38.9486" height="38.9486" fill="#7b90ba" stroke-width="0"/><rect x="522.1028" y="177.3598" width="38.9486" height="38.9486" fill="#c1cde2" stroke-width="0"/><rect x="561.0514" y="177.3598" width="38.9486" height="38.9486" fill="#7b90ba" stroke-width="0"/><rect x="600" y="177.3598" width="38.9486" height="38.9486" fill="#7b90ba" stroke-width="0"/><rect x="327.3598" y="216.3084" width="38.9486" height="38.9486" fill="#d2742e" stroke-width="0"/><rect x="366.3084" y="216.3084" width="38.9486" height="38.9486" fill="#edede8" stroke-width="0"/><rect x="405.257" y="216.3084" width="38.9486" height="38.9486" fill="#edede8" stroke-width="0"/><rect x="444.2056" y="216.3084" width="38.9486" height="38.9486" fill="#d2742e" stroke-width="0"/><rect x="483.1542" y="216.3084" width="38.9486" height="38.9486" fill="#ebc24f" stroke-width="0"/><rect x="522.1028" y="216.3084" width="38.9486" height="38.9486" fill="#7b90ba" stroke-width="0"/><rect x="561.0514" y="216.3084" width="38.9486" height="38.9486" fill="#c1cde2" stroke-width="0"/><rect x="600" y="216.3084" width="38.9486" height="38.9486" fill="#7b90ba" stroke-width="0"/><rect x="638.9486" y="216.3084" width="38.9486" height="38.9486" fill="#d2742e" stroke-width="0"/><rect x="677.8972" y="216.3084" width="38.9486" height="38.9486" fill="#d2742e" stroke-width="0"/><rect x="327.3598" y="255.257" width="38.9486" height="38.9486" fill="#d2742e" stroke-width="0"/><rect x="366.3084" y="255.257" width="38.9486" height="38.9486" fill="#d2742e" stroke-width="0"/><rect x="405.257" y="255.257" width="38.9486" height="38.9486" fill="#ebc24f" stroke-width="0"/><rect x="444.2056" y="255.257" width="38.9486" height="38.9486" fill="#edede8" stroke-width="0"/><rect x="483.1542" y="255.257" width="38.9486" height="38.9486" fill="#edede8" stroke-width="0"/><rect x="522.1028" y="255.257" width="38.9486" height="38.9486" fill="#c1cde2" stroke-width="0"/><rect x="561.0514" y="255.257" width="38.9486" height="38.9486" fill="#e4e4e4" stroke-width="0"/><rect x="600" y="255.257" width="38.9486" height="38.9486" fill="#e4e4e4" stroke-width="0"/><rect x="638.9486" y="255.257" width="38.9486" height="38.9486" fill="#c1cde2" stroke-width="0"/><rect x="677.8972" y="255.257" width="38.9486" height="38.9486" fill="#ebc24f" stroke-width="0"/><rect x="716.8458" y="255.257" width="38.9486" height="38.9486" fill="#d2742e" stroke-width="0"/><rect x="755.7944" y="255.257" width="38.9486" height="38.9486" fill="#7b90ba" stroke-width="0"/><rect x="366.3084" y="294.2056" width="38.9486" height="38.9486" fill="#d2742e" stroke-width="0"/><rect x="405.257" y="294.2056" width="38.9486" height="38.9486" fill="#ebc24f" stroke-width="0"/><rect x="444.2056" y="294.2056" width="38.9486" height="38.9486" fill="#ebc24f" stroke-width="0"/><rect x="483.1542" y="294.2056" width="38.9486" height="38.9486" fill="#ebc24f" stroke-width="0"/><rect x="522.1028" y="294.2056" width="38.9486" height="38.9486" fill="#c1cde2" stroke-width="0"/><rect x="561.0514" y="294.2056" width="38.9486" height="38.9486" fill="#e4e4e4" stroke-width="0"/><rect x="600" y="294.2056" width="38.9486" height="38.9486" fill="#e4e4e4" stroke-width="0"/><rect x="638.9486" y="294.2056" width="38.9486" height="38.9486" fill="#c1cde2" stroke-width="0"/><rect x="677.8972" y="294.2056" width="38.9486" height="38.9486" fill="#edede8" stroke-width="0"/><rect x="716.8458" y="294.2056" width="38.9486" height="38.9486" fill="#edede8" stroke-width="0"/><rect x="755.7944" y="294.2056" width="38.9486" height="38.9486" fill="#c1cde2" stroke-width="0"/><rect x="794.743" y="294.2056" width="38.9486" height="38.9486" fill="#7b90ba" stroke-width="0"/><rect x="249.4626" y="333.1542" width="38.9486" height="38.9486" fill="#7b90ba" stroke-width="0"/><rect x="288.4112" y="333.1542" width="38.9486" height="38.9486" fill="#7b90ba" stroke-width="0"/><rect x="405.257" y="333.1542" width="38.9486" height="38.9486" fill="#d2742e" stroke-width="0"/><rect x="444.2056" y="333.1542" width="38.9486" height="38.9486" fill="#ebc24f" stroke-width="0"/><rect x="483.1542" y="333.1542" width="38.9486" height="38.9486" fill="#ebc24f" stroke-width="0"/><rect x="522.1028" y="333.1542" width="38.9486" height="38.9486" fill="#7b90ba" stroke-width="0"/><rect x="561.0514" y="333.1542" width="38.9486" height="38.9486" fill="#c1cde2" stroke-width="0"/><rect x="600" y="333.1542" width="38.9486" height="38.9486" fill="#c1cde2" stroke-width="0"/><rect x="638.9486" y="333.1542" width="38.9486" height="38.9486" fill="#7b90ba" stroke-width="0"/><rect x="677.8972" y="333.1542" width="38.9486" height="38.9486" fill="#ebc24f" stroke-width="0"/><rect x="716.8458" y="333.1542" width="38.9486" height="38.9486" fill="#ebc24f" stroke-width="0"/><rect x="755.7944" y="333.1542" width="38.9486" height="38.9486" fill="#c1cde2" stroke-width="0"/><rect x="794.743" y="333.1542" width="38.9486" height="38.9486" fill="#e4e4e4" stroke-width="0"/><rect x="833.6916" y="333.1542" width="38.9486" height="38.9486" fill="#7b90ba" stroke-width="0"/><rect x="210.514" y="372.1028" width="38.9486" height="38.9486" fill="#7b90ba" stroke-width="0"/><rect x="249.4626" y="372.1028" width="38.9486" height="38.9486" fill="#e4e4e4" stroke-width="0"/><rect x="288.4112" y="372.1028" width="38.9486" height="38.9486" fill="#e4e4e4" stroke-width="0"/><rect x="327.3598" y="372.1028" width="38.9486" height="38.9486" fill="#7b90ba" stroke-width="0"/><rect x="405.257" y="372.1028" width="38.9486" height="38.9486" fill="#d2742e" stroke-width="0"/><rect x="444.2056" y="372.1028" width="38.9486" height="38.9486" fill="#ebc24f" stroke-width="0"/><rect x="483.1542" y="372.1028" width="38.9486" height="38.9486" fill="#ebc24f" stroke-width="0"/><rect x="522.1028" y="372.1028" width="38.9486" height="38.9486" fill="#7b90ba" stroke-width="0"/><rect x="561.0514" y="372.1028" width="38.9486" height="38.9486" fill="#c1cde2" stroke-width="0"/><rect x="600" y="372.1028" width="38.9486" height="38.9486" fill="#c1cde2" stroke-width="0"/><rect x="638.9486" y="372.1028" width="38.9486" height="38.9486" fill="#7b90ba" stroke-width="0"/><rect x="677.8972" y="372.1028" width="38.9486" height="38.9486" fill="#ebc24f" stroke-width="0"/><rect x="716.8458" y="372.1028" width="38.9486" height="38.9486" fill="#ebc24f" stroke-width="0"/><rect x="755.7944" y="372.1028" width="38.9486" height="38.9486" fill="#ededed" stroke-width="0"/><rect x="794.743" y="372.1028" width="38.9486" height="38.9486" fill="#17120b" stroke-width="0"/><rect x="833.6916" y="372.1028" width="38.9486" height="38.9486" fill="#e4e4e4" stroke-width="0"/><rect x="872.6402" y="372.1028" width="38.9486" height="38.9486" fill="#7b90ba" stroke-width="0"/><rect x="210.514" y="411.0514" width="38.9486" height="38.9486" fill="#7b90ba" stroke-width="0"/><rect x="249.4626" y="411.0514" width="38.9486" height="38.9486" fill="#c1cde2" stroke-width="0"/><rect x="288.4112" y="411.0514" width="38.9486" height="38.9486" fill="#c1cde2" stroke-width="0"/><rect x="327.3598" y="411.0514" width="38.9486" height="38.9486" fill="#e4e4e4" stroke-width="0"/><rect x="366.3084" y="411.0514" width="38.9486" height="38.9486" fill="#554f74" stroke-width="0"/><rect x="405.257" y="411.0514" width="38.9486" height="38.9486" fill="#ebc24f" stroke-width="0"/><rect x="444.2056" y="411.0514" width="38.9486" height="38.9486" fill="#ebc24f" stroke-width="0"/><rect x="483.1542" y="411.0514" width="38.9486" height="38.9486" fill="#ebc24f" stroke-width="0"/><rect x="522.1028" y="411.0514" width="38.9486" height="38.9486" fill="#554f74" stroke-width="0"/><rect x="561.0514" y="411.0514" width="38.9486" height="38.9486" fill="#c1cde2" stroke-width="0"/><rect x="600" y="411.0514" width="38.9486" height="38.9486" fill="#c1cde2" stroke-width="0"/><rect x="638.9486" y="411.0514" width="38.9486" height="38.9486" fill="#7b90ba" stroke-width="0"/><rect x="677.8972" y="411.0514" width="38.9486" height="38.9486" fill="#ebc24f" stroke-width="0"/><rect x="716.8458" y="411.0514" width="38.9486" height="38.9486" fill="#ebc24f" stroke-width="0"/><rect x="755.7944" y="411.0514" width="38.9486" height="38.9486" fill="#ededed" stroke-width="0"/><rect x="794.743" y="411.0514" width="38.9486" height="38.9486" fill="#17120b" stroke-width="0"/><rect x="833.6916" y="411.0514" width="38.9486" height="38.9486" fill="#c1cde2" stroke-width="0"/><rect x="872.6402" y="411.0514" width="38.9486" height="38.9486" fill="#e4e4e4" stroke-width="0"/><rect x="911.5888" y="411.0514" width="38.9486" height="38.9486" fill="#7b90ba" stroke-width="0"/><rect x="950.5374" y="411.0514" width="38.9486" height="38.9486" fill="#554f74" stroke-width="0"/><rect x="210.514" y="450" width="38.9486" height="38.9486" fill="#7b90ba" stroke-width="0"/><rect x="249.4626" y="450" width="38.9486" height="38.9486" fill="#7b90ba" stroke-width="0"/><rect x="288.4112" y="450" width="38.9486" height="38.9486" fill="#7b90ba" stroke-width="0"/><rect x="327.3598" y="450" width="38.9486" height="38.9486" fill="#c1cde2" stroke-width="0"/><rect x="366.3084" y="450" width="38.9486" height="38.9486" fill="#554f74" stroke-width="0"/><rect x="405.257" y="450" width="38.9486" height="38.9486" fill="#d2742e" stroke-width="0"/><rect x="444.2056" y="450" width="38.9486" height="38.9486" fill="#ebc24f" stroke-width="0"/><rect x="483.1542" y="450" width="38.9486" height="38.9486" fill="#d2742e" stroke-width="0"/><rect x="522.1028" y="450" width="38.9486" height="38.9486" fill="#7b90ba" stroke-width="0"/><rect x="561.0514" y="450" width="38.9486" height="38.9486" fill="#7b90ba" stroke-width="0"/><rect x="600" y="450" width="38.9486" height="38.9486" fill="#c1cde2" stroke-width="0"/><rect x="638.9486" y="450" width="38.9486" height="38.9486" fill="#554f74" stroke-width="0"/><rect x="677.8972" y="450" width="38.9486" height="38.9486" fill="#ebc24f" stroke-width="0"/><rect x="716.8458" y="450" width="38.9486" height="38.9486" fill="#ebc24f" stroke-width="0"/><rect x="755.7944" y="450" width="38.9486" height="38.9486" fill="#7b90ba" stroke-width="0"/><rect x="794.743" y="450" width="38.9486" height="38.9486" fill="#c1cde2" stroke-width="0"/><rect x="833.6916" y="450" width="38.9486" height="38.9486" fill="#7b90ba" stroke-width="0"/><rect x="872.6402" y="450" width="38.9486" height="38.9486" fill="#7b90ba" stroke-width="0"/><rect x="210.514" y="488.9486" width="38.9486" height="38.9486" fill="#7b90ba" stroke-width="0"/><rect x="249.4626" y="488.9486" width="38.9486" height="38.9486" fill="#c1cde2" stroke-width="0"/><rect x="288.4112" y="488.9486" width="38.9486" height="38.9486" fill="#c1cde2" stroke-width="0"/><rect x="327.3598" y="488.9486" width="38.9486" height="38.9486" fill="#554f74" stroke-width="0"/><rect x="405.257" y="488.9486" width="38.9486" height="38.9486" fill="#993328" stroke-width="0"/><rect x="444.2056" y="488.9486" width="38.9486" height="38.9486" fill="#d2742e" stroke-width="0"/><rect x="483.1542" y="488.9486" width="38.9486" height="38.9486" fill="#ebc24f" stroke-width="0"/><rect x="522.1028" y="488.9486" width="38.9486" height="38.9486" fill="#554f74" stroke-width="0"/><rect x="561.0514" y="488.9486" width="38.9486" height="38.9486" fill="#c1cde2" stroke-width="0"/><rect x="600" y="488.9486" width="38.9486" height="38.9486" fill="#7b90ba" stroke-width="0"/><rect x="638.9486" y="488.9486" width="38.9486" height="38.9486" fill="#554f74" stroke-width="0"/><rect x="677.8972" y="488.9486" width="38.9486" height="38.9486" fill="#d2742e" stroke-width="0"/><rect x="716.8458" y="488.9486" width="38.9486" height="38.9486" fill="#ebc24f" stroke-width="0"/><rect x="755.7944" y="488.9486" width="38.9486" height="38.9486" fill="#554f74" stroke-width="0"/><rect x="794.743" y="488.9486" width="38.9486" height="38.9486" fill="#7b90ba" stroke-width="0"/><rect x="833.6916" y="488.9486" width="38.9486" height="38.9486" fill="#554f74" stroke-width="0"/><rect x="249.4626" y="527.8972" width="38.9486" height="38.9486" fill="#554f74" stroke-width="0"/><rect x="288.4112" y="527.8972" width="38.9486" height="38.9486" fill="#554f74" stroke-width="0"/><rect x="405.257" y="527.8972" width="38.9486" height="38.9486" fill="#993328" stroke-width="0"/><rect x="444.2056" y="527.8972" width="38.9486" height="38.9486" fill="#ebc24f" stroke-width="0"/><rect x="483.1542" y="527.8972" width="38.9486" height="38.9486" fill="#d2742e" stroke-width="0"/><rect x="522.1028" y="527.8972" width="38.9486" height="38.9486" fill="#554f74" stroke-width="0"/><rect x="561.0514" y="527.8972" width="38.9486" height="38.9486" fill="#7b90ba" stroke-width="0"/><rect x="600" y="527.8972" width="38.9486" height="38.9486" fill="#c1cde2" stroke-width="0"/><rect x="638.9486" y="527.8972" width="38.9486" height="38.9486" fill="#7b90ba" stroke-width="0"/><rect x="677.8972" y="527.8972" width="38.9486" height="38.9486" fill="#ebc24f" stroke-width="0"/><rect x="716.8458" y="527.8972" width="38.9486" height="38.9486" fill="#d2742e" stroke-width="0"/><rect x="755.7944" y="527.8972" width="38.9486" height="38.9486" fill="#554f74" stroke-width="0"/><rect x="794.743" y="527.8972" width="38.9486" height="38.9486" fill="#554f74" stroke-width="0"/><rect x="366.3084" y="566.8458" width="38.9486" height="38.9486" fill="#993328" stroke-width="0"/><rect x="405.257" y="566.8458" width="38.9486" height="38.9486" fill="#d2742e" stroke-width="0"/><rect x="444.2056" y="566.8458" width="38.9486" height="38.9486" fill="#d2742e" stroke-width="0"/><rect x="483.1542" y="566.8458" width="38.9486" height="38.9486" fill="#ebc24f" stroke-width="0"/><rect x="522.1028" y="566.8458" width="38.9486" height="38.9486" fill="#554f74" stroke-width="0"/><rect x="561.0514" y="566.8458" width="38.9486" height="38.9486" fill="#7b90ba" stroke-width="0"/><rect x="600" y="566.8458" width="38.9486" height="38.9486" fill="#7b90ba" stroke-width="0"/><rect x="638.9486" y="566.8458" width="38.9486" height="38.9486" fill="#554f74" stroke-width="0"/><rect x="677.8972" y="566.8458" width="38.9486" height="38.9486" fill="#d2742e" stroke-width="0"/><rect x="716.8458" y="566.8458" width="38.9486" height="38.9486" fill="#c1cde2" stroke-width="0"/><rect x="755.7944" y="566.8458" width="38.9486" height="38.9486" fill="#554f74" stroke-width="0"/><rect x="366.3084" y="605.7944" width="38.9486" height="38.9486" fill="#993328" stroke-width="0"/><rect x="405.257" y="605.7944" width="38.9486" height="38.9486" fill="#d2742e" stroke-width="0"/><rect x="444.2056" y="605.7944" width="38.9486" height="38.9486" fill="#d2742e" stroke-width="0"/><rect x="483.1542" y="605.7944" width="38.9486" height="38.9486" fill="#554f74" stroke-width="0"/><rect x="522.1028" y="605.7944" width="38.9486" height="38.9486" fill="#7b90ba" stroke-width="0"/><rect x="561.0514" y="605.7944" width="38.9486" height="38.9486" fill="#7b90ba" stroke-width="0"/><rect x="600" y="605.7944" width="38.9486" height="38.9486" fill="#554f74" stroke-width="0"/><rect x="638.9486" y="605.7944" width="38.9486" height="38.9486" fill="#554f74" stroke-width="0"/><rect x="677.8972" y="605.7944" width="38.9486" height="38.9486" fill="#c1cde2" stroke-width="0"/><rect x="716.8458" y="605.7944" width="38.9486" height="38.9486" fill="#554f74" stroke-width="0"/><rect x="366.3084" y="644.743" width="38.9486" height="38.9486" fill="#993328" stroke-width="0"/><rect x="405.257" y="644.743" width="38.9486" height="38.9486" fill="#d2742e" stroke-width="0"/><rect x="444.2056" y="644.743" width="38.9486" height="38.9486" fill="#d2742e" stroke-width="0"/><rect x="483.1542" y="644.743" width="38.9486" height="38.9486" fill="#554f74" stroke-width="0"/><rect x="522.1028" y="644.743" width="38.9486" height="38.9486" fill="#554f74" stroke-width="0"/><rect x="561.0514" y="644.743" width="38.9486" height="38.9486" fill="#554f74" stroke-width="0"/><rect x="600" y="644.743" width="38.9486" height="38.9486" fill="#554f74" stroke-width="0"/><rect x="638.9486" y="644.743" width="38.9486" height="38.9486" fill="#7b90ba" stroke-width="0"/><rect x="677.8972" y="644.743" width="38.9486" height="38.9486" fill="#554f74" stroke-width="0"/><rect x="405.257" y="683.6916" width="38.9486" height="38.9486" fill="#993328" stroke-width="0"/><rect x="444.2056" y="683.6916" width="38.9486" height="38.9486" fill="#55162b" stroke-width="0"/><rect x="600" y="683.6916" width="38.9486" height="38.9486" fill="#554f74" stroke-width="0"/><rect x="638.9486" y="683.6916" width="38.9486" height="38.9486" fill="#554f74" stroke-width="0"/><rect x="561.0514" y="722.6402" width="38.9486" height="38.9486" fill="#554f74" stroke-width="0"/><rect x="600" y="722.6402" width="38.9486" height="38.9486" fill="#554f74" stroke-width="0"/></svg>