<?xml version="1.0" encoding="UTF-8"?><svg id="_ëÎÓÈ_3" xmlns="http://www.w3.org/2000/svg" width="1200" height="900" viewBox="0 0 1200 900"><rect x="658.4229" y="157.8855" width="38.9486" height="38.9486" fill="#31394a" stroke-width="0"/><rect x="697.3715" y="157.8855" width="38.9486" height="38.9486" fill="#31394a" stroke-width="0"/><rect x="736.3201" y="157.8855" width="38.9486" height="38.9486" fill="#31394a" stroke-width="0"/><rect x="619.4743" y="196.8341" width="38.9486" height="38.9486" fill="#31394a" stroke-width="0"/><rect x="658.4229" y="196.8341" width="38.9486" height="38.9486" fill="#e5afa7" stroke-width="0"/><rect x="697.3715" y="196.8341" width="38.9486" height="38.9486" fill="#e5afa7" stroke-width="0"/><rect x="736.3201" y="196.8341" width="38.9486" height="38.9486" fill="#e5afa7" stroke-width="0"/><rect x="775.2687" y="196.8341" width="38.9486" height="38.9486" fill="#31394a" stroke-width="0"/><rect x="424.7313" y="235.7827" width="38.9486" height="38.9486" fill="#31394a" stroke-width="0"/><rect x="463.6799" y="235.7827" width="38.9486" height="38.9486" fill="#31394a" stroke-width="0"/><rect x="502.6285" y="235.7827" width="38.9486" height="38.9486" fill="#31394a" stroke-width="0"/><rect x="619.4743" y="235.7827" width="38.9486" height="38.9486" fill="#31394a" stroke-width="0"/><rect x="658.4229" y="235.7827" width="38.9486" height="38.9486" fill="#cf6481" stroke-width="0"/><rect x="697.3715" y="235.7827" width="38.9486" height="38.9486" fill="#cf6481" stroke-width="0"/><rect x="736.3201" y="235.7827" width="38.9486" height="38.9486" fill="#e5afa7" stroke-width="0"/><rect x="775.2687" y="235.7827" width="38.9486" height="38.9486" fill="#e5afa7" stroke-width="0"/><rect x="814.2173" y="235.7827" width="38.9486" height="38.9486" fill="#31394a" stroke-width="0"/><rect x="385.7827" y="274.7313" width="38.9486" height="38.9486" fill="#31394a" stroke-width="0"/><rect x="424.7313" y="274.7313" width="38.9486" height="38.9486" fill="#e5afa7" stroke-width="0"/><rect x="463.6799" y="274.7313" width="38.9486" height="38.9486" fill="#e5afa7" stroke-width="0"/><rect x="502.6285" y="274.7313" width="38.9486" height="38.9486" fill="#e5afa7" stroke-width="0"/><rect x="541.5771" y="274.7313" width="38.9486" height="38.9486" fill="#31394a" stroke-width="0"/><rect x="619.4743" y="274.7313" width="38.9486" height="38.9486" fill="#31394a" stroke-width="0"/><rect x="658.4229" y="274.7313" width="38.9486" height="38.9486" fill="#31394a" stroke-width="0"/><rect x="697.3715" y="274.7313" width="38.9486" height="38.9486" fill="#31394a" stroke-width="0"/><rect x="736.3201" y="274.7313" width="38.9486" height="38.9486" fill="#31394a" stroke-width="0"/><rect x="775.2687" y="274.7313" width="38.9486" height="38.9486" fill="#31394a" stroke-width="0"/><rect x="814.2173" y="274.7313" width="38.9486" height="38.9486" fill="#31394a" stroke-width="0"/><rect x="853.1659" y="274.7313" width="38.9486" height="38.9486" fill="#31394a" stroke-width="0"/><rect x="152.0911" y="313.6799" width="38.9486" height="38.9486" fill="#31394a" stroke-width="0"/><rect x="191.0397" y="313.6799" width="38.9486" height="38.9486" fill="#31394a" stroke-width="0"/><rect x="385.7827" y="313.6799" width="38.9486" height="38.9486" fill="#31394a" stroke-width="0"/><rect x="424.7313" y="313.6799" width="38.9486" height="38.9486" fill="#cf6481" stroke-width="0"/><rect x="463.6799" y="313.6799" width="38.9486" height="38.9486" fill="#cf6481" stroke-width="0"/><rect x="502.6285" y="313.6799" width="38.9486" height="38.9486" fill="#31394a" stroke-width="0"/><rect x="541.5771" y="313.6799" width="38.9486" height="38.9486" fill="#31394a" stroke-width="0"/><rect x="580.5257" y="313.6799" width="38.9486" height="38.9486" fill="#31394a" stroke-width="0"/><rect x="619.4743" y="313.6799" width="38.9486" height="38.9486" fill="#edede8" stroke-width="0"/><rect x="658.4229" y="313.6799" width="38.9486" height="38.9486" fill="#edede8" stroke-width="0"/><rect x="697.3715" y="313.6799" width="38.9486" height="38.9486" fill="#31394a" stroke-width="0"/><rect x="736.3201" y="313.6799" width="38.9486" height="38.9486" fill="#ebc24f" stroke-width="0"/><rect x="775.2687" y="313.6799" width="38.9486" height="38.9486" fill="#d2742e" stroke-width="0"/><rect x="814.2173" y="313.6799" width="38.9486" height="38.9486" fill="#31394a" stroke-width="0"/><rect x="853.1659" y="313.6799" width="38.9486" height="38.9486" fill="#edede8" stroke-width="0"/><rect x="892.1145" y="313.6799" width="38.9486" height="38.9486" fill="#31394a" stroke-width="0"/><rect x="931.0631" y="313.6799" width="38.9486" height="38.9486" fill="#31394a" stroke-width="0"/><rect x="113.1425" y="352.6285" width="38.9486" height="38.9486" fill="#31394a" stroke-width="0"/><rect x="152.0911" y="352.6285" width="38.9486" height="38.9486" fill="#e5afa7" stroke-width="0"/><rect x="191.0397" y="352.6285" width="38.9486" height="38.9486" fill="#e5afa7" stroke-width="0"/><rect x="229.9883" y="352.6285" width="38.9486" height="38.9486" fill="#31394a" stroke-width="0"/><rect x="385.7827" y="352.6285" width="38.9486" height="38.9486" fill="#31394a" stroke-width="0"/><rect x="424.7313" y="352.6285" width="38.9486" height="38.9486" fill="#31394a" stroke-width="0"/><rect x="463.6799" y="352.6285" width="38.9486" height="38.9486" fill="#31394a" stroke-width="0"/><rect x="502.6285" y="352.6285" width="38.9486" height="38.9486" fill="#ebc24f" stroke-width="0"/><rect x="541.5771" y="352.6285" width="38.9486" height="38.9486" fill="#31394a" stroke-width="0"/><rect x="580.5257" y="352.6285" width="38.9486" height="38.9486" fill="#edede8" stroke-width="0"/><rect x="619.4743" y="352.6285" width="38.9486" height="38.9486" fill="#e4e4e4" stroke-width="0"/><rect x="658.4229" y="352.6285" width="38.9486" height="38.9486" fill="#31394a" stroke-width="0"/><rect x="697.3715" y="352.6285" width="38.9486" height="38.9486" fill="#ebc24f" stroke-width="0"/><rect x="736.3201" y="352.6285" width="38.9486" height="38.9486" fill="#d2742e" stroke-width="0"/><rect x="775.2687" y="352.6285" width="38.9486" height="38.9486" fill="#31394a" stroke-width="0"/><rect x="814.2173" y="352.6285" width="38.9486" height="38.9486" fill="#edede8" stroke-width="0"/><rect x="853.1659" y="352.6285" width="38.9486" height="38.9486" fill="#edede8" stroke-width="0"/><rect x="892.1145" y="352.6285" width="38.9486" height="38.9486" fill="#e4e4e4" stroke-width="0"/><rect x="931.0631" y="352.6285" width="38.9486" height="38.9486" fill="#31394a" stroke-width="0"/><rect x="970.0117" y="352.6285" width="38.9486" height="38.9486" fill="#31394a" stroke-width="0"/><rect x="1008.9603" y="352.6285" width="38.9486" height="38.9486" fill="#31394a" stroke-width="0"/><rect x="74.1939" y="391.5771" width="38.9486" height="38.9486" fill="#31394a" stroke-width="0"/><rect x="113.1425" y="391.5771" width="38.9486" height="38.9486" fill="#e5afa7" stroke-width="0"/><rect x="152.0911" y="391.5771" width="38.9486" height="38.9486" fill="#e5afa7" stroke-width="0"/><rect x="191.0397" y="391.5771" width="38.9486" height="38.9486" fill="#d2742e" stroke-width="0"/><rect x="229.9883" y="391.5771" width="38.9486" height="38.9486" fill="#d2742e" stroke-width="0"/><rect x="268.9369" y="391.5771" width="38.9486" height="38.9486" fill="#31394a" stroke-width="0"/><rect x="346.8341" y="391.5771" width="38.9486" height="38.9486" fill="#31394a" stroke-width="0"/><rect x="385.7827" y="391.5771" width="38.9486" height="38.9486" fill="#edede8" stroke-width="0"/><rect x="424.7313" y="391.5771" width="38.9486" height="38.9486" fill="#edede8" stroke-width="0"/><rect x="463.6799" y="391.5771" width="38.9486" height="38.9486" fill="#31394a" stroke-width="0"/><rect x="502.6285" y="391.5771" width="38.9486" height="38.9486" fill="#d2742e" stroke-width="0"/><rect x="541.5771" y="391.5771" width="38.9486" height="38.9486" fill="#31394a" stroke-width="0"/><rect x="580.5257" y="391.5771" width="38.9486" height="38.9486" fill="#e4e4e4" stroke-width="0"/><rect x="619.4743" y="391.5771" width="38.9486" height="38.9486" fill="#e4e4e4" stroke-width="0"/><rect x="658.4229" y="391.5771" width="38.9486" height="38.9486" fill="#31394a" stroke-width="0"/><rect x="697.3715" y="391.5771" width="38.9486" height="38.9486" fill="#d2742e" stroke-width="0"/><rect x="736.3201" y="391.5771" width="38.9486" height="38.9486" fill="#ebc24f" stroke-width="0"/><rect x="775.2687" y="391.5771" width="38.9486" height="38.9486" fill="#31394a" stroke-width="0"/><rect x="814.2173" y="391.5771" width="38.9486" height="38.9486" fill="#e4e4e4" stroke-width="0"/><rect x="853.1659" y="391.5771" width="38.9486" height="38.9486" fill="#e4e4e4" stroke-width="0"/><rect x="892.1145" y="391.5771" width="38.9486" height="38.9486" fill="#31394a" stroke-width="0"/><rect x="931.0631" y="391.5771" width="38.9486" height="38.9486" fill="#edede8" stroke-width="0"/><rect x="970.0117" y="391.5771" width="38.9486" height="38.9486" fill="#17120b" stroke-width="0"/><rect x="1008.9603" y="391.5771" width="38.9486" height="38.9486" fill="#ebc24f" stroke-width="0"/><rect x="1047.9089" y="391.5771" width="38.9486" height="38.9486" fill="#31394a" stroke-width="0"/><rect x="74.1939" y="430.5257" width="38.9486" height="38.9486" fill="#31394a" stroke-width="0"/><rect x="113.1425" y="430.5257" width="38.9486" height="38.9486" fill="#e5afa7" stroke-width="0"/><rect x="152.0911" y="430.5257" width="38.9486" height="38.9486" fill="#d2742e" stroke-width="0"/><rect x="191.0397" y="430.5257" width="38.9486" height="38.9486" fill="#d2742e" stroke-width="0"/><rect x="229.9883" y="430.5257" width="38.9486" height="38.9486" fill="#d2742e" stroke-width="0"/><rect x="268.9369" y="430.5257" width="38.9486" height="38.9486" fill="#d2742e" stroke-width="0"/><rect x="307.8855" y="430.5257" width="38.9486" height="38.9486" fill="#31394a" stroke-width="0"/><rect x="346.8341" y="430.5257" width="38.9486" height="38.9486" fill="#e4e4e4" stroke-width="0"/><rect x="385.7827" y="430.5257" width="38.9486" height="38.9486" fill="#e4e4e4" stroke-width="0"/><rect x="424.7313" y="430.5257" width="38.9486" height="38.9486" fill="#31394a" stroke-width="0"/><rect x="463.6799" y="430.5257" width="38.9486" height="38.9486" fill="#d2742e" stroke-width="0"/><rect x="502.6285" y="430.5257" width="38.9486" height="38.9486" fill="#d2742e" stroke-width="0"/><rect x="541.5771" y="430.5257" width="38.9486" height="38.9486" fill="#31394a" stroke-width="0"/><rect x="580.5257" y="430.5257" width="38.9486" height="38.9486" fill="#e4e4e4" stroke-width="0"/><rect x="619.4743" y="430.5257" width="38.9486" height="38.9486" fill="#e4e4e4" stroke-width="0"/><rect x="658.4229" y="430.5257" width="38.9486" height="38.9486" fill="#31394a" stroke-width="0"/><rect x="697.3715" y="430.5257" width="38.9486" height="38.9486" fill="#d2742e" stroke-width="0"/><rect x="736.3201" y="430.5257" width="38.9486" height="38.9486" fill="#d2742e" stroke-width="0"/><rect x="775.2687" y="430.5257" width="38.9486" height="38.9486" fill="#31394a" stroke-width="0"/><rect x="814.2173" y="430.5257" width="38.9486" height="38.9486" fill="#e4e4e4" stroke-width="0"/><rect x="853.1659" y="430.5257" width="38.9486" height="38.9486" fill="#e4e4e4" stroke-width="0"/><rect x="892.1145" y="430.5257" width="38.9486" height="38.9486" fill="#31394a" stroke-width="0"/><rect x="931.0631" y="430.5257" width="38.9486" height="38.9486" fill="#ededed" stroke-width="0"/><rect x="970.0117" y="430.5257" width="38.9486" height="38.9486" fill="#17120b" stroke-width="0"/><rect x="1008.9603" y="430.5257" width="38.9486" height="38.9486" fill="#d2742e" stroke-width="0"/><rect x="1047.9089" y="430.5257" width="38.9486" height="38.9486" fill="#d2742e" stroke-width="0"/><rect x="1086.8575" y="430.5257" width="38.9486" height="38.9486" fill="#31394a" stroke-width="0"/><rect x="74.1939" y="469.4743" width="38.9486" height="38.9486" fill="#17120b" stroke-width="0"/><rect x="113.1425" y="469.4743" width="38.9486" height="38.9486" fill="#e5afa7" stroke-width="0"/><rect x="152.0911" y="469.4743" width="38.9486" height="38.9486" fill="#d2742e" stroke-width="0"/><rect x="191.0397" y="469.4743" width="38.9486" height="38.9486" fill="#d2742e" stroke-width="0"/><rect x="229.9883" y="469.4743" width="38.9486" height="38.9486" fill="#d2742e" stroke-width="0"/><rect x="268.9369" y="469.4743" width="38.9486" height="38.9486" fill="#d2742e" stroke-width="0"/><rect x="307.8855" y="469.4743" width="38.9486" height="38.9486" fill="#17120b" stroke-width="0"/><rect x="346.8341" y="469.4743" width="38.9486" height="38.9486" fill="#e4e4e4" stroke-width="0"/><rect x="385.7827" y="469.4743" width="38.9486" height="38.9486" fill="#e4e4e4" stroke-width="0"/><rect x="424.7313" y="469.4743" width="38.9486" height="38.9486" fill="#17120b" stroke-width="0"/><rect x="463.6799" y="469.4743" width="38.9486" height="38.9486" fill="#d2742e" stroke-width="0"/><rect x="502.6285" y="469.4743" width="38.9486" height="38.9486" fill="#993328" stroke-width="0"/><rect x="541.5771" y="469.4743" width="38.9486" height="38.9486" fill="#17120b" stroke-width="0"/><rect x="580.5257" y="469.4743" width="38.9486" height="38.9486" fill="#e4e4e4" stroke-width="0"/><rect x="619.4743" y="469.4743" width="38.9486" height="38.9486" fill="#e4e4e4" stroke-width="0"/><rect x="658.4229" y="469.4743" width="38.9486" height="38.9486" fill="#17120b" stroke-width="0"/><rect x="697.3715" y="469.4743" width="38.9486" height="38.9486" fill="#d2742e" stroke-width="0"/><rect x="736.3201" y="469.4743" width="38.9486" height="38.9486" fill="#993328" stroke-width="0"/><rect x="775.2687" y="469.4743" width="38.9486" height="38.9486" fill="#17120b" stroke-width="0"/><rect x="814.2173" y="469.4743" width="38.9486" height="38.9486" fill="#e4e4e4" stroke-width="0"/><rect x="853.1659" y="469.4743" width="38.9486" height="38.9486" fill="#e4e4e4" stroke-width="0"/><rect x="892.1145" y="469.4743" width="38.9486" height="38.9486" fill="#17120b" stroke-width="0"/><rect x="931.0631" y="469.4743" width="38.9486" height="38.9486" fill="#d2742e" stroke-width="0"/><rect x="970.0117" y="469.4743" width="38.9486" height="38.9486" fill="#d2742e" stroke-width="0"/><rect x="1008.9603" y="469.4743" width="38.9486" height="38.9486" fill="#d2742e" stroke-width="0"/><rect x="1047.9089" y="469.4743" width="38.9486" height="38.9486" fill="#993328" stroke-width="0"/><rect x="1086.8575" y="469.4743" width="38.9486" height="38.9486" fill="#17120b" stroke-width="0"/><rect x="74.1939" y="508.4229" width="38.9486" height="38.9486" fill="#17120b" stroke-width="0"/><rect x="113.1425" y="508.4229" width="38.9486" height="38.9486" fill="#e5afa7" stroke-width="0"/><rect x="152.0911" y="508.4229" width="38.9486" height="38.9486" fill="#e5afa7" stroke-width="0"/><rect x="191.0397" y="508.4229" width="38.9486" height="38.9486" fill="#d2742e" stroke-width="0"/><rect x="229.9883" y="508.4229" width="38.9486" height="38.9486" fill="#d2742e" stroke-width="0"/><rect x="268.9369" y="508.4229" width="38.9486" height="38.9486" fill="#17120b" stroke-width="0"/><rect x="346.8341" y="508.4229" width="38.9486" height="38.9486" fill="#17120b" stroke-width="0"/><rect x="385.7827" y="508.4229" width="38.9486" height="38.9486" fill="#e4e4e4" stroke-width="0"/><rect x="424.7313" y="508.4229" width="38.9486" height="38.9486" fill="#e4e4e4" stroke-width="0"/><rect x="463.6799" y="508.4229" width="38.9486" height="38.9486" fill="#17120b" stroke-width="0"/><rect x="502.6285" y="508.4229" width="38.9486" height="38.9486" fill="#d2742e" stroke-width="0"/><rect x="541.5771" y="508.4229" width="38.9486" height="38.9486" fill="#17120b" stroke-width="0"/><rect x="580.5257" y="508.4229" width="38.9486" height="38.9486" fill="#e4e4e4" stroke-width="0"/><rect x="619.4743" y="508.4229" width="38.9486" height="38.9486" fill="#e4e4e4" stroke-width="0"/><rect x="658.4229" y="508.4229" width="38.9486" height="38.9486" fill="#17120b" stroke-width="0"/><rect x="697.3715" y="508.4229" width="38.9486" height="38.9486" fill="#993328" stroke-width="0"/><rect x="736.3201" y="508.4229" width="38.9486" height="38.9486" fill="#d2742e" stroke-width="0"/><rect x="775.2687" y="508.4229" width="38.9486" height="38.9486" fill="#17120b" stroke-width="0"/><rect x="814.2173" y="508.4229" width="38.9486" height="38.9486" fill="#e4e4e4" stroke-width="0"/><rect x="853.1659" y="508.4229" width="38.9486" height="38.9486" fill="#e4e4e4" stroke-width="0"/><rect x="892.1145" y="508.4229" width="38.9486" height="38.9486" fill="#17120b" stroke-width="0"/><rect x="931.0631" y="508.4229" width="38.9486" height="38.9486" fill="#993328" stroke-width="0"/><rect x="970.0117" y="508.4229" width="38.9486" height="38.9486" fill="#993328" stroke-width="0"/><rect x="1008.9603" y="508.4229" width="38.9486" height="38.9486" fill="#993328" stroke-width="0"/><rect x="1047.9089" y="508.4229" width="38.9486" height="38.9486" fill="#17120b" stroke-width="0"/><rect x="113.1425" y="547.3715" width="38.9486" height="38.9486" fill="#17120b" stroke-width="0"/><rect x="152.0911" y="547.3715" width="38.9486" height="38.9486" fill="#e5afa7" stroke-width="0"/><rect x="191.0397" y="547.3715" width="38.9486" height="38.9486" fill="#e5afa7" stroke-width="0"/><rect x="229.9883" y="547.3715" width="38.9486" height="38.9486" fill="#17120b" stroke-width="0"/><rect x="385.7827" y="547.3715" width="38.9486" height="38.9486" fill="#17120b" stroke-width="0"/><rect x="424.7313" y="547.3715" width="38.9486" height="38.9486" fill="#17120b" stroke-width="0"/><rect x="463.6799" y="547.3715" width="38.9486" height="38.9486" fill="#17120b" stroke-width="0"/><rect x="502.6285" y="547.3715" width="38.9486" height="38.9486" fill="#993328" stroke-width="0"/><rect x="541.5771" y="547.3715" width="38.9486" height="38.9486" fill="#17120b" stroke-width="0"/><rect x="580.5257" y="547.3715" width="38.9486" height="38.9486" fill="#e4e4e4" stroke-width="0"/><rect x="619.4743" y="547.3715" width="38.9486" height="38.9486" fill="#e4e4e4" stroke-width="0"/><rect x="658.4229" y="547.3715" width="38.9486" height="38.9486" fill="#17120b" stroke-width="0"/><rect x="697.3715" y="547.3715" width="38.9486" height="38.9486" fill="#993328" stroke-width="0"/><rect x="736.3201" y="547.3715" width="38.9486" height="38.9486" fill="#993328" stroke-width="0"/><rect x="775.2687" y="547.3715" width="38.9486" height="38.9486" fill="#17120b" stroke-width="0"/><rect x="814.2173" y="547.3715" width="38.9486" height="38.9486" fill="#e4e4e4" stroke-width="0"/><rect x="853.1659" y="547.3715" width="38.9486" height="38.9486" fill="#e4e4e4" stroke-width="0"/><rect x="892.1145" y="547.3715" width="38.9486" height="38.9486" fill="#e4e4e4" stroke-width="0"/><rect x="931.0631" y="547.3715" width="38.9486" height="38.9486" fill="#17120b" stroke-width="0"/><rect x="970.0117" y="547.3715" width="38.9486" height="38.9486" fill="#17120b" stroke-width="0"/><rect x="1008.9603" y="547.3715" width="38.9486" height="38.9486" fill="#17120b" stroke-width="0"/><rect x="152.0911" y="586.3201" width="38.9486" height="38.9486" fill="#17120b" stroke-width="0"/><rect x="191.0397" y="586.3201" width="38.9486" height="38.9486" fill="#17120b" stroke-width="0"/><rect x="424.7313" y="586.3201" width="38.9486" height="38.9486" fill="#17120b" stroke-width="0"/><rect x="463.6799" y="586.3201" width="38.9486" height="38.9486" fill="#cf6481" stroke-width="0"/><rect x="502.6285" y="586.3201" width="38.9486" height="38.9486" fill="#17120b" stroke-width="0"/><rect x="541.5771" y="586.3201" width="38.9486" height="38.9486" fill="#17120b" stroke-width="0"/><rect x="580.5257" y="586.3201" width="38.9486" height="38.9486" fill="#17120b" stroke-width="0"/><rect x="619.4743" y="586.3201" width="38.9486" height="38.9486" fill="#e4e4e4" stroke-width="0"/><rect x="658.4229" y="586.3201" width="38.9486" height="38.9486" fill="#e4e4e4" stroke-width="0"/><rect x="697.3715" y="586.3201" width="38.9486" height="38.9486" fill="#17120b" stroke-width="0"/><rect x="736.3201" y="586.3201" width="38.9486" height="38.9486" fill="#993328" stroke-width="0"/><rect x="775.2687" y="586.3201" width="38.9486" height="38.9486" fill="#993328" stroke-width="0"/><rect x="814.2173" y="586.3201" width="38.9486" height="38.9486" fill="#17120b" stroke-width="0"/><rect x="853.1659" y="586.3201" width="38.9486" height="38.9486" fill="#e4e4e4" stroke-width="0"/><rect x="892.1145" y="586.3201" width="38.9486" height="38.9486" fill="#17120b" stroke-width="0"/><rect x="931.0631" y="586.3201" width="38.9486" height="38.9486" fill="#17120b" stroke-width="0"/><rect x="424.7313" y="625.2687" width="38.9486" height="38.9486" fill="#17120b" stroke-width="0"/><rect x="463.6799" y="625.2687" width="38.9486" height="38.9486" fill="#cf6481" stroke-width="0"/><rect x="502.6285" y="625.2687" width="38.9486" height="38.9486" fill="#cf6481" stroke-width="0"/><rect x="541.5771" y="625.2687" width="38.9486" height="38.9486" fill="#cf6481" stroke-width="0"/><rect x="580.5257" y="625.2687" width="38.9486" height="38.9486" fill="#17120b" stroke-width="0"/><rect x="619.4743" y="625.2687" width="38.9486" height="38.9486" fill="#17120b" stroke-width="0"/><rect x="658.4229" y="625.2687" width="38.9486" height="38.9486" fill="#17120b" stroke-width="0"/><rect x="697.3715" y="625.2687" width="38.9486" height="38.9486" fill="#17120b" stroke-width="0"/><rect x="736.3201" y="625.2687" width="38.9486" height="38.9486" fill="#17120b" stroke-width="0"/><rect x="775.2687" y="625.2687" width="38.9486" height="38.9486" fill="#17120b" stroke-width="0"/><rect x="814.2173" y="625.2687" width="38.9486" height="38.9486" fill="#17120b" stroke-width="0"/><rect x="853.1659" y="625.2687" width="38.9486" height="38.9486" fill="#17120b" stroke-width="0"/><rect x="463.6799" y="664.2173" width="38.9486" height="38.9486" fill="#17120b" stroke-width="0"/><rect x="502.6285" y="664.2173" width="38.9486" height="38.9486" fill="#17120b" stroke-width="0"/><rect x="541.5771" y="664.2173" width="38.9486" height="38.9486" fill="#17120b" stroke-width="0"/><rect x="658.4229" y="664.2173" width="38.9486" height="38.9486" fill="#17120b" stroke-width="0"/><rect x="697.3715" y="664.2173" width="38.9486" height="38.9486" fill="#cf6481" stroke-width="0"/><rect x="736.3201" y="664.2173" width="38.9486" height="38.9486" fill="#cf6481" stroke-width="0"/><rect x="775.2687" y="664.2173" width="38.9486" height="38.9486" fill="#cf6481" stroke-width="0"/><rect x="814.2173" y="664.2173" width="38.9486" height="38.9486" fill="#17120b" stroke-width="0"/><rect x="697.3715" y="703.1659" width="38.9486" height="38.9486" fill="#17120b" stroke-width="0"/><rect x="736.3201" y="703.1659" width="38.9486" height="38.9486" fill="#17120b" stroke-width="0"/><rect x="775.2687" y="703.1659" width="38.9486" height="38.9486" fill="#17120b" stroke-width="0"/></svg>